<?xml version="1.0" encoding="UTF-8"?>
<svg width="64px" height="55px" viewBox="0 0 64 55" version="1.1" xmlns="http://www.w3.org/2000/svg" xmlns:xlink="http://www.w3.org/1999/xlink">
    <!-- Generator: Sketch 47.1 (45422) - http://www.bohemiancoding.com/sketch -->
    <title>agenda-icn</title>
    <desc>Created with Sketch.</desc>
    <defs></defs>
    <g id="Page-1" stroke="none" stroke-width="1" fill="none" fill-rule="evenodd">
        <g id="Desktop-HD" transform="translate(-166.000000, -1004.000000)">
            <g id="agenda-icn" transform="translate(166.000000, 1004.000000)">
                <g id="Page-1">
                    <path d="M47.2805385,49.8879615 L56.3978462,49.8879615 L56.3978462,40.7706538 L47.2805385,40.7706538 L47.2805385,49.8879615 Z M29.1263077,49.8879615 L38.2436154,49.8879615 L38.2436154,40.7706538 L29.1263077,40.7706538 L29.1263077,49.8879615 Z M10.8121538,49.8879615 L19.9286154,49.8879615 L19.9286154,40.7706538 L10.8121538,40.7706538 L10.8121538,49.8879615 Z M47.2805385,37.9115 L56.3978462,37.9115 L56.3978462,28.7941923 L47.2805385,28.7941923 L47.2805385,37.9115 Z M29.1263077,37.9115 L38.2436154,37.9115 L38.2436154,28.7941923 L29.1263077,28.7941923 L29.1263077,37.9115 Z M10.8121538,37.9115 L19.9286154,37.9115 L19.9286154,28.7941923 L10.8121538,28.7941923 L10.8121538,37.9115 Z M47.2805385,25.9350385 L56.3978462,25.9350385 L56.3978462,16.8185769 L47.2805385,16.8185769 L47.2805385,25.9350385 Z M29.1263077,25.9350385 L38.2436154,25.9350385 L38.2436154,16.8185769 L29.1263077,16.8185769 L29.1263077,25.9350385 Z M10.8121538,25.9350385 L19.9286154,25.9350385 L19.9286154,16.8185769 L10.8121538,16.8185769 L10.8121538,25.9350385 Z M62.7854615,51.5379615 C62.7854615,52.7945 61.7633077,53.8166538 60.5076154,53.8166538 L6.86315385,53.8166538 C5.60661538,53.8166538 4.58446154,52.7945 4.58446154,51.5379615 L4.58446154,12.5565 L62.7854615,12.5565 L62.7854615,51.5379615 Z" id="Fill-1" fill="#F2790F"></path>
                    <path d="M47.2805385,49.8879615 L56.3978462,49.8879615 L56.3978462,40.7706538 L47.2805385,40.7706538 L47.2805385,49.8879615 Z M29.1263077,49.8879615 L38.2436154,49.8879615 L38.2436154,40.7706538 L29.1263077,40.7706538 L29.1263077,49.8879615 Z M10.8121538,49.8879615 L19.9286154,49.8879615 L19.9286154,40.7706538 L10.8121538,40.7706538 L10.8121538,49.8879615 Z M47.2805385,37.9115 L56.3978462,37.9115 L56.3978462,28.7941923 L47.2805385,28.7941923 L47.2805385,37.9115 Z M29.1263077,37.9115 L38.2436154,37.9115 L38.2436154,28.7941923 L29.1263077,28.7941923 L29.1263077,37.9115 Z M10.8121538,37.9115 L19.9286154,37.9115 L19.9286154,28.7941923 L10.8121538,28.7941923 L10.8121538,37.9115 Z M47.2805385,25.9350385 L56.3978462,25.9350385 L56.3978462,16.8185769 L47.2805385,16.8185769 L47.2805385,25.9350385 Z M29.1263077,25.9350385 L38.2436154,25.9350385 L38.2436154,16.8185769 L29.1263077,16.8185769 L29.1263077,25.9350385 Z M10.8121538,25.9350385 L19.9286154,25.9350385 L19.9286154,16.8185769 L10.8121538,16.8185769 L10.8121538,25.9350385 Z M62.7854615,51.5379615 C62.7854615,52.7945 61.7633077,53.8166538 60.5076154,53.8166538 L6.86315385,53.8166538 C5.60661538,53.8166538 4.58446154,52.7945 4.58446154,51.5379615 L4.58446154,12.5565 L62.7854615,12.5565 L62.7854615,51.5379615 Z" id="Stroke-3" stroke="#033159" stroke-width="2"></path>
                    <path d="M48.2781538,45.1038077 L51.8142308,45.1038077 L51.8142308,41.5677308 L48.2781538,41.5677308 L48.2781538,45.1038077 Z M45.4875385,47.8944231 L54.604,47.8944231 L54.604,38.7779615 L45.4875385,38.7779615 L45.4875385,47.8944231 Z M30.1222308,45.1038077 L33.6591538,45.1038077 L33.6591538,41.5677308 L30.1222308,41.5677308 L30.1222308,45.1038077 Z M27.3324615,47.8944231 L36.4497692,47.8944231 L36.4497692,38.7779615 L27.3324615,38.7779615 L27.3324615,47.8944231 Z M11.8080769,45.1038077 L15.3441538,45.1038077 L15.3441538,41.5677308 L11.8080769,41.5677308 L11.8080769,45.1038077 Z M9.01830769,47.8944231 L18.1347692,47.8944231 L18.1347692,38.7779615 L9.01830769,38.7779615 L9.01830769,47.8944231 Z M48.2781538,33.1281923 L51.8142308,33.1281923 L51.8142308,29.5912692 L48.2781538,29.5912692 L48.2781538,33.1281923 Z M45.4875385,35.9179615 L54.604,35.9179615 L54.604,26.8006538 L45.4875385,26.8006538 L45.4875385,35.9179615 Z M30.1222308,33.1281923 L33.6591538,33.1281923 L33.6591538,29.5912692 L30.1222308,29.5912692 L30.1222308,33.1281923 Z M27.3324615,35.9179615 L36.4497692,35.9179615 L36.4497692,26.8006538 L27.3324615,26.8006538 L27.3324615,35.9179615 Z M11.8080769,33.1281923 L15.3441538,33.1281923 L15.3441538,29.5912692 L11.8080769,29.5912692 L11.8080769,33.1281923 Z M9.01830769,35.9179615 L18.1347692,35.9179615 L18.1347692,26.8006538 L9.01830769,26.8006538 L9.01830769,35.9179615 Z M48.2781538,21.1517308 L51.8142308,21.1517308 L51.8142308,17.6156538 L48.2781538,17.6156538 L48.2781538,21.1517308 Z M45.4875385,23.9415 L54.604,23.9415 L54.604,14.8250385 L45.4875385,14.8250385 L45.4875385,23.9415 Z M30.1222308,21.1517308 L33.6591538,21.1517308 L33.6591538,17.6156538 L30.1222308,17.6156538 L30.1222308,21.1517308 Z M27.3324615,23.9415 L36.4497692,23.9415 L36.4497692,14.8250385 L27.3324615,14.8250385 L27.3324615,23.9415 Z M11.8080769,21.1517308 L15.3441538,21.1517308 L15.3441538,17.6156538 L11.8080769,17.6156538 L11.8080769,21.1517308 Z M9.01830769,23.9415 L18.1347692,23.9415 L18.1347692,14.8250385 L9.01830769,14.8250385 L9.01830769,23.9415 Z M2.79061538,7.77319231 L60.9916154,7.77319231 L60.9916154,2.79019231 L2.79061538,2.79019231 L2.79061538,7.77319231 Z M60.9916154,49.5444231 C60.9916154,50.8018077 59.9694615,51.8239615 58.7129231,51.8239615 L5.06930769,51.8239615 C3.81276923,51.8239615 2.79061538,50.8018077 2.79061538,49.5444231 L2.79061538,10.5638077 L60.9916154,10.5638077 L60.9916154,49.5444231 Z M0,0.000423076923 L0,49.5444231 C0,52.3443462 2.27023077,54.6145769 5.06930769,54.6145769 L58.7129231,54.6145769 C61.5128462,54.6145769 63.7822308,52.3443462 63.7822308,49.5444231 L63.7822308,0.000423076923 L0,0.000423076923 Z" id="Fill-4" fill="#FFFFFF"></path>
                </g>
            </g>
        </g>
    </g>
</svg>