<svg xmlns="http://www.w3.org/2000/svg" viewBox="0 0 1724 796.02"><defs><style>.cls-1{fill:none;stroke:#c8c8c8;stroke-miterlimit:10;}</style></defs><title>fond-section</title><g id="Layer_2" data-name="Layer 2"><line class="cls-1" x1="-203.55" y1="-42.91" x2="5.27" y2="795.09"/><line class="cls-1" x1="-194.83" y1="-42.91" x2="13.99" y2="795.09"/><line class="cls-1" x1="-186.1" y1="-42.91" x2="22.71" y2="795.09"/><line class="cls-1" x1="-177.38" y1="-42.91" x2="31.44" y2="795.09"/><line class="cls-1" x1="-168.65" y1="-42.91" x2="40.16" y2="795.09"/><line class="cls-1" x1="-159.93" y1="-42.91" x2="48.89" y2="795.09"/><line class="cls-1" x1="-151.2" y1="-42.91" x2="57.61" y2="795.09"/><line class="cls-1" x1="-142.48" y1="-42.91" x2="66.34" y2="795.09"/><line class="cls-1" x1="-133.75" y1="-42.91" x2="75.06" y2="795.09"/><line class="cls-1" x1="-125.03" y1="-42.91" x2="83.79" y2="795.09"/><line class="cls-1" x1="-116.3" y1="-42.91" x2="92.51" y2="795.09"/><line class="cls-1" x1="-107.58" y1="-42.91" x2="101.24" y2="795.09"/><line class="cls-1" x1="-98.85" y1="-42.91" x2="109.96" y2="795.09"/><line class="cls-1" x1="-90.13" y1="-42.91" x2="118.69" y2="795.09"/><line class="cls-1" x1="-81.4" y1="-42.91" x2="127.41" y2="795.09"/><line class="cls-1" x1="-72.68" y1="-42.91" x2="136.14" y2="795.09"/><line class="cls-1" x1="-63.95" y1="-42.91" x2="144.86" y2="795.09"/><line class="cls-1" x1="-55.23" y1="-42.91" x2="153.59" y2="795.09"/><line class="cls-1" x1="-46.5" y1="-42.91" x2="162.31" y2="795.09"/><line class="cls-1" x1="-37.78" y1="-42.91" x2="171.04" y2="795.09"/><line class="cls-1" x1="-29.05" y1="-42.91" x2="179.76" y2="795.09"/><line class="cls-1" x1="-20.33" y1="-42.91" x2="188.49" y2="795.09"/><line class="cls-1" x1="-11.6" y1="-42.91" x2="197.21" y2="795.09"/><line class="cls-1" x1="-2.88" y1="-42.91" x2="205.94" y2="795.09"/><line class="cls-1" x1="5.85" y1="-42.91" x2="214.66" y2="795.09"/><line class="cls-1" x1="14.57" y1="-42.91" x2="223.39" y2="795.09"/><line class="cls-1" x1="23.3" y1="-42.91" x2="232.11" y2="795.09"/><line class="cls-1" x1="32.02" y1="-42.91" x2="240.84" y2="795.09"/><line class="cls-1" x1="40.75" y1="-42.91" x2="249.56" y2="795.09"/><line class="cls-1" x1="49.47" y1="-42.91" x2="258.29" y2="795.09"/><line class="cls-1" x1="58.2" y1="-42.91" x2="267.01" y2="795.09"/><line class="cls-1" x1="66.92" y1="-42.91" x2="275.74" y2="795.09"/><line class="cls-1" x1="75.65" y1="-42.91" x2="284.46" y2="795.09"/><line class="cls-1" x1="84.37" y1="-42.91" x2="293.19" y2="795.09"/><line class="cls-1" x1="93.1" y1="-42.91" x2="301.91" y2="795.09"/><line class="cls-1" x1="101.82" y1="-42.91" x2="310.64" y2="795.09"/><line class="cls-1" x1="110.55" y1="-42.91" x2="319.36" y2="795.09"/><line class="cls-1" x1="119.27" y1="-42.91" x2="328.09" y2="795.09"/><line class="cls-1" x1="127.99" y1="-42.91" x2="336.81" y2="795.09"/><line class="cls-1" x1="136.72" y1="-42.91" x2="345.54" y2="795.09"/><line class="cls-1" x1="145.44" y1="-42.91" x2="354.26" y2="795.09"/><line class="cls-1" x1="154.17" y1="-42.91" x2="362.98" y2="795.09"/><line class="cls-1" x1="162.89" y1="-42.91" x2="371.71" y2="795.09"/><line class="cls-1" x1="171.62" y1="-42.91" x2="380.43" y2="795.09"/><line class="cls-1" x1="180.34" y1="-42.91" x2="389.16" y2="795.09"/><line class="cls-1" x1="189.07" y1="-42.91" x2="397.88" y2="795.09"/><line class="cls-1" x1="197.79" y1="-42.91" x2="406.61" y2="795.09"/><line class="cls-1" x1="206.52" y1="-42.91" x2="415.33" y2="795.09"/><line class="cls-1" x1="215.24" y1="-42.91" x2="424.06" y2="795.09"/><line class="cls-1" x1="223.97" y1="-42.91" x2="432.78" y2="795.09"/><line class="cls-1" x1="232.69" y1="-42.91" x2="441.51" y2="795.09"/><line class="cls-1" x1="241.42" y1="-42.91" x2="450.23" y2="795.09"/><line class="cls-1" x1="250.14" y1="-42.91" x2="458.96" y2="795.09"/><line class="cls-1" x1="258.87" y1="-42.91" x2="467.68" y2="795.09"/><line class="cls-1" x1="267.59" y1="-42.91" x2="476.41" y2="795.09"/><line class="cls-1" x1="276.32" y1="-42.91" x2="485.13" y2="795.09"/><line class="cls-1" x1="285.04" y1="-42.91" x2="493.86" y2="795.09"/><line class="cls-1" x1="293.77" y1="-42.91" x2="502.58" y2="795.09"/><line class="cls-1" x1="302.49" y1="-42.91" x2="511.31" y2="795.09"/><line class="cls-1" x1="311.22" y1="-42.91" x2="520.03" y2="795.09"/><line class="cls-1" x1="319.94" y1="-42.91" x2="528.76" y2="795.09"/><line class="cls-1" x1="328.67" y1="-42.91" x2="537.48" y2="795.09"/><line class="cls-1" x1="337.39" y1="-42.91" x2="546.21" y2="795.09"/><line class="cls-1" x1="346.12" y1="-42.91" x2="554.93" y2="795.09"/><line class="cls-1" x1="354.84" y1="-42.91" x2="563.66" y2="795.09"/><line class="cls-1" x1="363.57" y1="-42.91" x2="572.38" y2="795.09"/><line class="cls-1" x1="372.29" y1="-42.91" x2="581.11" y2="795.09"/><line class="cls-1" x1="381.02" y1="-42.91" x2="589.83" y2="795.09"/><line class="cls-1" x1="389.74" y1="-42.91" x2="598.56" y2="795.09"/><line class="cls-1" x1="398.47" y1="-42.91" x2="607.28" y2="795.09"/><line class="cls-1" x1="407.19" y1="-42.91" x2="616.01" y2="795.09"/><line class="cls-1" x1="415.92" y1="-42.91" x2="624.73" y2="795.09"/><line class="cls-1" x1="424.64" y1="-42.91" x2="633.46" y2="795.09"/><line class="cls-1" x1="433.37" y1="-42.91" x2="642.18" y2="795.09"/><line class="cls-1" x1="442.09" y1="-42.91" x2="650.91" y2="795.09"/><line class="cls-1" x1="450.82" y1="-42.91" x2="659.63" y2="795.09"/><line class="cls-1" x1="459.54" y1="-42.91" x2="668.36" y2="795.09"/><line class="cls-1" x1="468.26" y1="-42.91" x2="677.08" y2="795.09"/><line class="cls-1" x1="476.99" y1="-42.91" x2="685.81" y2="795.09"/><line class="cls-1" x1="485.71" y1="-42.91" x2="694.53" y2="795.09"/><line class="cls-1" x1="494.44" y1="-42.91" x2="703.25" y2="795.09"/><line class="cls-1" x1="503.16" y1="-42.91" x2="711.98" y2="795.09"/><line class="cls-1" x1="511.89" y1="-42.91" x2="720.7" y2="795.09"/><line class="cls-1" x1="520.61" y1="-42.91" x2="729.43" y2="795.09"/><line class="cls-1" x1="529.34" y1="-42.91" x2="738.15" y2="795.09"/><line class="cls-1" x1="538.06" y1="-42.91" x2="746.88" y2="795.09"/><line class="cls-1" x1="546.79" y1="-42.91" x2="755.6" y2="795.09"/><line class="cls-1" x1="555.51" y1="-42.91" x2="764.33" y2="795.09"/><line class="cls-1" x1="564.24" y1="-42.91" x2="773.05" y2="795.09"/><line class="cls-1" x1="572.96" y1="-42.91" x2="781.78" y2="795.09"/><line class="cls-1" x1="581.69" y1="-42.91" x2="790.5" y2="795.09"/><line class="cls-1" x1="590.41" y1="-42.91" x2="799.23" y2="795.09"/><line class="cls-1" x1="599.14" y1="-42.91" x2="807.95" y2="795.09"/><line class="cls-1" x1="607.86" y1="-42.91" x2="816.68" y2="795.09"/><line class="cls-1" x1="616.59" y1="-42.91" x2="825.4" y2="795.09"/><line class="cls-1" x1="625.31" y1="-42.91" x2="834.13" y2="795.09"/><line class="cls-1" x1="634.04" y1="-42.91" x2="842.85" y2="795.09"/><line class="cls-1" x1="642.76" y1="-42.91" x2="851.58" y2="795.09"/><line class="cls-1" x1="651.49" y1="-42.91" x2="860.3" y2="795.09"/><line class="cls-1" x1="660.21" y1="-42.91" x2="869.03" y2="795.09"/><line class="cls-1" x1="668.94" y1="-42.91" x2="877.75" y2="795.09"/><line class="cls-1" x1="677.66" y1="-42.91" x2="886.48" y2="795.09"/><line class="cls-1" x1="686.39" y1="-42.91" x2="895.2" y2="795.09"/><line class="cls-1" x1="695.11" y1="-42.91" x2="903.93" y2="795.09"/><line class="cls-1" x1="703.84" y1="-42.91" x2="912.65" y2="795.09"/><line class="cls-1" x1="712.56" y1="-42.91" x2="921.38" y2="795.09"/><line class="cls-1" x1="721.29" y1="-42.91" x2="930.1" y2="795.09"/><line class="cls-1" x1="730.01" y1="-42.91" x2="938.83" y2="795.09"/><line class="cls-1" x1="738.74" y1="-42.91" x2="947.55" y2="795.09"/><line class="cls-1" x1="747.46" y1="-42.91" x2="956.28" y2="795.09"/><line class="cls-1" x1="755.89" y1="-42.91" x2="964.71" y2="795.09"/><line class="cls-1" x1="764.62" y1="-42.91" x2="973.43" y2="795.09"/><line class="cls-1" x1="773.34" y1="-42.91" x2="982.16" y2="795.09"/><line class="cls-1" x1="782.07" y1="-42.91" x2="990.88" y2="795.09"/><line class="cls-1" x1="790.79" y1="-42.91" x2="999.61" y2="795.09"/><line class="cls-1" x1="799.52" y1="-42.91" x2="1008.33" y2="795.09"/><line class="cls-1" x1="808.24" y1="-42.91" x2="1017.06" y2="795.09"/><line class="cls-1" x1="816.97" y1="-42.91" x2="1025.78" y2="795.09"/><line class="cls-1" x1="825.69" y1="-42.91" x2="1034.51" y2="795.09"/><line class="cls-1" x1="834.42" y1="-42.91" x2="1043.23" y2="795.09"/><line class="cls-1" x1="843.14" y1="-42.91" x2="1051.96" y2="795.09"/><line class="cls-1" x1="851.87" y1="-42.91" x2="1060.68" y2="795.09"/><line class="cls-1" x1="860.59" y1="-42.91" x2="1069.41" y2="795.09"/><line class="cls-1" x1="869.32" y1="-42.91" x2="1078.13" y2="795.09"/><line class="cls-1" x1="878.04" y1="-42.91" x2="1086.86" y2="795.09"/><line class="cls-1" x1="886.77" y1="-42.91" x2="1095.58" y2="795.09"/><line class="cls-1" x1="895.49" y1="-42.91" x2="1104.31" y2="795.09"/><line class="cls-1" x1="904.22" y1="-42.91" x2="1113.03" y2="795.09"/><line class="cls-1" x1="912.94" y1="-42.91" x2="1121.76" y2="795.09"/><line class="cls-1" x1="921.67" y1="-42.91" x2="1130.48" y2="795.09"/><line class="cls-1" x1="930.39" y1="-42.91" x2="1139.21" y2="795.09"/><line class="cls-1" x1="939.12" y1="-42.91" x2="1147.93" y2="795.09"/><line class="cls-1" x1="947.84" y1="-42.91" x2="1156.66" y2="795.09"/><line class="cls-1" x1="956.57" y1="-42.91" x2="1165.38" y2="795.09"/><line class="cls-1" x1="965.29" y1="-42.91" x2="1174.11" y2="795.09"/><line class="cls-1" x1="974.02" y1="-42.91" x2="1182.83" y2="795.09"/><line class="cls-1" x1="982.74" y1="-42.91" x2="1191.56" y2="795.09"/><line class="cls-1" x1="991.47" y1="-42.91" x2="1200.28" y2="795.09"/><line class="cls-1" x1="1000.19" y1="-42.91" x2="1209.01" y2="795.09"/><line class="cls-1" x1="1008.92" y1="-42.91" x2="1217.73" y2="795.09"/><line class="cls-1" x1="1017.64" y1="-42.91" x2="1226.46" y2="795.09"/><line class="cls-1" x1="1026.37" y1="-42.91" x2="1235.18" y2="795.09"/><line class="cls-1" x1="1035.09" y1="-42.91" x2="1243.91" y2="795.09"/><line class="cls-1" x1="1043.82" y1="-42.91" x2="1252.63" y2="795.09"/><line class="cls-1" x1="1052.54" y1="-42.91" x2="1261.36" y2="795.09"/><line class="cls-1" x1="1061.27" y1="-42.91" x2="1270.08" y2="795.09"/><line class="cls-1" x1="1069.99" y1="-42.91" x2="1278.81" y2="795.09"/><line class="cls-1" x1="1078.72" y1="-42.91" x2="1287.53" y2="795.09"/><line class="cls-1" x1="1087.44" y1="-42.91" x2="1296.26" y2="795.09"/><line class="cls-1" x1="1096.16" y1="-42.91" x2="1304.98" y2="795.09"/><line class="cls-1" x1="1104.89" y1="-42.91" x2="1313.71" y2="795.09"/><line class="cls-1" x1="1113.61" y1="-42.91" x2="1322.43" y2="795.09"/><line class="cls-1" x1="1122.34" y1="-42.91" x2="1331.15" y2="795.09"/><line class="cls-1" x1="1131.06" y1="-42.91" x2="1339.88" y2="795.09"/><line class="cls-1" x1="1139.79" y1="-42.91" x2="1348.6" y2="795.09"/><line class="cls-1" x1="1148.51" y1="-42.91" x2="1357.33" y2="795.09"/><line class="cls-1" x1="1157.24" y1="-42.91" x2="1366.05" y2="795.09"/><line class="cls-1" x1="1165.96" y1="-42.91" x2="1374.78" y2="795.09"/><line class="cls-1" x1="1174.69" y1="-42.91" x2="1383.5" y2="795.09"/><line class="cls-1" x1="1183.41" y1="-42.91" x2="1392.23" y2="795.09"/><line class="cls-1" x1="1192.14" y1="-42.91" x2="1400.95" y2="795.09"/><line class="cls-1" x1="1200.86" y1="-42.91" x2="1409.68" y2="795.09"/><line class="cls-1" x1="1209.59" y1="-42.91" x2="1418.4" y2="795.09"/><line class="cls-1" x1="1218.31" y1="-42.91" x2="1427.13" y2="795.09"/><line class="cls-1" x1="1227.04" y1="-42.91" x2="1435.85" y2="795.09"/><line class="cls-1" x1="1235.76" y1="-42.91" x2="1444.58" y2="795.09"/><line class="cls-1" x1="1244.49" y1="-42.91" x2="1453.3" y2="795.09"/><line class="cls-1" x1="1253.21" y1="-42.91" x2="1462.03" y2="795.09"/><line class="cls-1" x1="1261.94" y1="-42.91" x2="1470.75" y2="795.09"/><line class="cls-1" x1="1270.66" y1="-42.91" x2="1479.48" y2="795.09"/><line class="cls-1" x1="1279.39" y1="-42.91" x2="1488.2" y2="795.09"/><line class="cls-1" x1="1288.11" y1="-42.91" x2="1496.93" y2="795.09"/><line class="cls-1" x1="1296.84" y1="-42.91" x2="1505.65" y2="795.09"/><line class="cls-1" x1="1305.56" y1="-42.91" x2="1514.38" y2="795.09"/><line class="cls-1" x1="1314.29" y1="-42.91" x2="1523.1" y2="795.09"/><line class="cls-1" x1="1323.01" y1="-42.91" x2="1531.83" y2="795.09"/><line class="cls-1" x1="1331.74" y1="-42.91" x2="1540.55" y2="795.09"/><line class="cls-1" x1="1340.46" y1="-42.91" x2="1549.28" y2="795.09"/><line class="cls-1" x1="1349.19" y1="-42.91" x2="1558" y2="795.09"/><line class="cls-1" x1="1357.91" y1="-42.91" x2="1566.73" y2="795.09"/><line class="cls-1" x1="1366.64" y1="-42.91" x2="1575.45" y2="795.09"/><line class="cls-1" x1="1375.36" y1="-42.91" x2="1584.18" y2="795.09"/><line class="cls-1" x1="1384.09" y1="-42.91" x2="1592.9" y2="795.09"/><line class="cls-1" x1="1392.81" y1="-42.91" x2="1601.63" y2="795.09"/><line class="cls-1" x1="1401.54" y1="-42.91" x2="1610.35" y2="795.09"/><line class="cls-1" x1="1410.26" y1="-42.91" x2="1619.08" y2="795.09"/><line class="cls-1" x1="1418.99" y1="-42.91" x2="1627.8" y2="795.09"/><line class="cls-1" x1="1427.71" y1="-42.91" x2="1636.53" y2="795.09"/><line class="cls-1" x1="1436.43" y1="-42.91" x2="1645.25" y2="795.09"/><line class="cls-1" x1="1445.16" y1="-42.91" x2="1653.98" y2="795.09"/><line class="cls-1" x1="1453.88" y1="-42.91" x2="1662.7" y2="795.09"/><line class="cls-1" x1="1462.61" y1="-42.91" x2="1671.42" y2="795.09"/><line class="cls-1" x1="1471.33" y1="-42.91" x2="1680.15" y2="795.09"/><line class="cls-1" x1="1480.06" y1="-42.91" x2="1688.87" y2="795.09"/><line class="cls-1" x1="1488.78" y1="-42.91" x2="1697.6" y2="795.09"/><line class="cls-1" x1="1497.51" y1="-42.91" x2="1706.32" y2="795.09"/><line class="cls-1" x1="1506.23" y1="-42.91" x2="1715.05" y2="795.09"/><line class="cls-1" x1="1514.96" y1="-42.91" x2="1723.77" y2="795.09"/><line class="cls-1" x1="1523.68" y1="-42.91" x2="1732.5" y2="795.09"/><line class="cls-1" x1="1532.41" y1="-42.91" x2="1741.22" y2="795.09"/><line class="cls-1" x1="1541.13" y1="-42.91" x2="1749.95" y2="795.09"/><line class="cls-1" x1="1549.86" y1="-42.91" x2="1758.67" y2="795.09"/><line class="cls-1" x1="1558.58" y1="-42.91" x2="1767.4" y2="795.09"/><line class="cls-1" x1="1567.31" y1="-42.91" x2="1776.12" y2="795.09"/><line class="cls-1" x1="1576.03" y1="-42.91" x2="1784.85" y2="795.09"/><line class="cls-1" x1="1584.76" y1="-42.91" x2="1793.57" y2="795.09"/><line class="cls-1" x1="1593.48" y1="-42.91" x2="1802.3" y2="795.09"/><line class="cls-1" x1="1602.21" y1="-42.91" x2="1811.02" y2="795.09"/><line class="cls-1" x1="1610.93" y1="-42.91" x2="1819.75" y2="795.09"/><line class="cls-1" x1="1619.66" y1="-42.91" x2="1828.47" y2="795.09"/><line class="cls-1" x1="1628.38" y1="-42.91" x2="1837.2" y2="795.09"/><line class="cls-1" x1="1637.11" y1="-42.91" x2="1845.92" y2="795.09"/><line class="cls-1" x1="1645.83" y1="-42.91" x2="1854.65" y2="795.09"/><line class="cls-1" x1="1654.56" y1="-42.91" x2="1863.37" y2="795.09"/><line class="cls-1" x1="1663.28" y1="-42.91" x2="1872.1" y2="795.09"/><line class="cls-1" x1="1672.01" y1="-42.91" x2="1880.82" y2="795.09"/><line class="cls-1" x1="1680.73" y1="-42.91" x2="1889.55" y2="795.09"/><line class="cls-1" x1="1689.46" y1="-42.91" x2="1898.27" y2="795.09"/><line class="cls-1" x1="1698.18" y1="-42.91" x2="1907" y2="795.09"/><line class="cls-1" x1="1706.91" y1="-42.91" x2="1915.72" y2="795.09"/><line class="cls-1" x1="1715.63" y1="-42.91" x2="1924.45" y2="795.09"/><line class="cls-1" x1="1724.36" y1="-42.91" x2="1933.17" y2="795.09"/></g></svg>