<svg id="Layer_1" data-name="Layer 1" xmlns="http://www.w3.org/2000/svg" viewBox="0 0 149.1 37.05"><defs><style>.cls-1{fill:#fff;}</style></defs><title>logo-easyrdv-w</title><path class="cls-1" d="M132.34,20.2,124.45,9.67l1.08-.81-5-2.14.65,5.4,1.08-.81,8.93,11.91a1.36,1.36,0,0,0,1.06.55h0a1.36,1.36,0,0,0,1.05-.49L148.05,5.86l1,.86.9-5.36-5.09,1.9,1,.86Z"/><path class="cls-1" d="M144.73,21.89a12.43,12.43,0,0,1-24.55,2.78,7.29,7.29,0,0,1-2.53.45h-.16a15.16,15.16,0,1,0,26.83-12.46L142.5,14.8A12.36,12.36,0,0,1,144.73,21.89Z"/><path class="cls-1" d="M126.6,10l.47.62a12.41,12.41,0,0,1,11.1.33L140,8.82a15.14,15.14,0,0,0-13.13-1.07l1.75.75Z"/><path class="cls-1" d="M121.14,5.32l2.2.94a5.8,5.8,0,0,0-5.7-4.81H111a5.8,5.8,0,0,0-5.79,5.79V18.31a1.36,1.36,0,0,0,2.73,0V7.24A3.07,3.07,0,0,1,111,4.17h6.65a3,3,0,0,1,1.07.19v-.1Z"/><path class="cls-1" d="M75.47,1.36a1.36,1.36,0,0,0-1.36,1.36V9H63.63a2.47,2.47,0,0,1-2.47-2.47A5.2,5.2,0,0,0,56,1.36H44.21A5.2,5.2,0,0,0,39,6.56v.17a5.2,5.2,0,0,0,5.2,5.2H52a2.47,2.47,0,0,1,2.47,2.47v3.75A2.47,2.47,0,0,1,52,20.61H40.29a2.47,2.47,0,0,1-2.47-2.47V6.56a5.2,5.2,0,0,0-5.2-5.2h-8a5.2,5.2,0,0,0-5.2,5.2V18.14A2.47,2.47,0,0,1,17,20.61H5.2a2.47,2.47,0,0,1-2.47-2.47V11.88H17a1.36,1.36,0,0,0,0-2.73H2.73V6.56A2.47,2.47,0,0,1,5.2,4.09H17a1.36,1.36,0,0,0,0-2.73H5.2A5.2,5.2,0,0,0,0,6.56V18.14a5.2,5.2,0,0,0,5.2,5.2H17a5.2,5.2,0,0,0,5.2-5.2V11.88H35.1v6.27a5.2,5.2,0,0,0,5.2,5.2H52a5.2,5.2,0,0,0,5.2-5.2V14.4A5.2,5.2,0,0,0,52,9.2H44.21a2.47,2.47,0,0,1-2.47-2.47V6.56a2.47,2.47,0,0,1,2.47-2.47H56a2.47,2.47,0,0,1,2.47,2.47,5.2,5.2,0,0,0,5.2,5.2H74.11v6.39a2.47,2.47,0,0,1-2.47,2.47H59.8a1.36,1.36,0,1,0,0,2.73H71.64a5.2,5.2,0,0,0,5.2-5.2V2.73A1.36,1.36,0,0,0,75.47,1.36ZM22.15,9.15V6.56a2.47,2.47,0,0,1,2.47-2.47h8A2.47,2.47,0,0,1,35.1,6.56V9.15Z"/><path class="cls-1" d="M120.71,14.4v3.41a3.07,3.07,0,0,1-3.06,3.06H107.07A3.07,3.07,0,0,1,104,17.81a5.8,5.8,0,0,0-4.31-5.6l-1.06-.28h.26a5.2,5.2,0,0,0,5.2-5.2V6.56a5.2,5.2,0,0,0-5.2-5.2h-8a5.2,5.2,0,0,0-5.2,5.2V22a1.36,1.36,0,1,0,2.73,0V12L99,14.84a3.07,3.07,0,0,1,2.28,3,5.8,5.8,0,0,0,5.79,5.79h10.57a5.8,5.8,0,0,0,5.79-5.79V15.41l-1.47-2ZM88.42,6.56a2.47,2.47,0,0,1,2.47-2.47h8a2.47,2.47,0,0,1,2.47,2.47v.17A2.47,2.47,0,0,1,98.9,9.2H88.42Z"/></svg>