<svg id="Layer_1" data-name="Layer 1" xmlns="http://www.w3.org/2000/svg" viewBox="0 0 150 36.84"><defs><style>.cls-1{fill:#f2790f;}.cls-2{fill:#033159;}</style></defs><title>logo-easy-rdv</title><path class="cls-1" d="M143.47,12.16l-1.79,2.11A12.28,12.28,0,1,1,119.63,24a7.2,7.2,0,0,1-2.5.45H117a15,15,0,1,0,26.51-12.31Zm-17-2a12.26,12.26,0,0,1,11,.33l1.77-2.09a15,15,0,0,0-13-1.06l1.73.74-2,1.47ZM75.47,1a1.35,1.35,0,0,0-1.35,1.35V8.57H63.77a2.44,2.44,0,0,1-2.44-2.44A5.14,5.14,0,0,0,56.2,1H44.58a5.14,5.14,0,0,0-5.13,5.13V6.3a5.14,5.14,0,0,0,5.13,5.13h7.74a2.44,2.44,0,0,1,2.44,2.44v3.7A2.44,2.44,0,0,1,52.32,20H40.71a2.44,2.44,0,0,1-2.44-2.44V6.13A5.14,5.14,0,0,0,33.14,1H25.23a5.14,5.14,0,0,0-5.13,5.13V17.58A2.44,2.44,0,0,1,17.65,20H6A2.44,2.44,0,0,1,3.6,17.58V11.39H17.74a1.35,1.35,0,1,0,0-2.69H3.6V6.13A2.44,2.44,0,0,1,6,3.69h11.7a1.35,1.35,0,1,0,0-2.69H6A5.14,5.14,0,0,0,.91,6.13V17.58A5.14,5.14,0,0,0,6,22.71H17.65a5.14,5.14,0,0,0,5.13-5.13V11.39H35.58v6.19a5.14,5.14,0,0,0,5.13,5.13H52.32a5.14,5.14,0,0,0,5.13-5.13v-3.7a5.14,5.14,0,0,0-5.13-5.13H44.58A2.44,2.44,0,0,1,42.14,6.3V6.13a2.44,2.44,0,0,1,2.44-2.44H56.2a2.44,2.44,0,0,1,2.44,2.44,5.14,5.14,0,0,0,5.13,5.13H74.12v6.31A2.44,2.44,0,0,1,71.68,20H60a1.35,1.35,0,0,0,0,2.69h11.7a5.14,5.14,0,0,0,5.13-5.13V2.35A1.35,1.35,0,0,0,75.47,1ZM35.58,8.69H22.79V6.13a2.44,2.44,0,0,1,2.44-2.44h7.91a2.44,2.44,0,0,1,2.44,2.44Z"/><path class="cls-2" d="M144.06,2.87l1,.85L131.65,19.61l-7.79-10.4,1.07-.8L120,6.3l.64,5.33,1.07-.8,8.82,11.77a1.35,1.35,0,0,0,1,.54h0a1.35,1.35,0,0,0,1-.49l14.53-17.2,1,.85.89-5.3ZM106.18,19.09a1.35,1.35,0,0,0,1.35-1.35V6.8a3,3,0,0,1,3-3h6.57a3,3,0,0,1,1.06.19v-.1l2.41,1,2.18.93a5.73,5.73,0,0,0-5.64-4.75h-6.57a5.73,5.73,0,0,0-5.72,5.72V17.75A1.35,1.35,0,0,0,106.18,19.09Zm14-5.21v3.37a3,3,0,0,1-3,3H106.69a3,3,0,0,1-3-3,5.73,5.73,0,0,0-4.26-5.53l-1.05-.28h.26a5.14,5.14,0,0,0,5.13-5.13V6.13A5.14,5.14,0,0,0,98.61,1H90.7a5.14,5.14,0,0,0-5.13,5.13V21.37a1.35,1.35,0,0,0,2.69,0V11.55l10.45,2.76A3,3,0,0,1,101,17.24,5.73,5.73,0,0,0,106.69,23h10.44a5.73,5.73,0,0,0,5.72-5.72V14.88l-1.45-1.93ZM88.26,6.13A2.44,2.44,0,0,1,90.7,3.69h7.91A2.44,2.44,0,0,1,101,6.13V6.3a2.44,2.44,0,0,1-2.44,2.44H88.26Z"/></svg>