<?xml version="1.0" encoding="UTF-8"?>
<svg width="63px" height="54px" viewBox="0 0 63 54" version="1.1" xmlns="http://www.w3.org/2000/svg" xmlns:xlink="http://www.w3.org/1999/xlink">
    <!-- Generator: Sketch 47.1 (45422) - http://www.bohemiancoding.com/sketch -->
    <title>page-pro-icn</title>
    <desc>Created with Sketch.</desc>
    <defs></defs>
    <g id="Page-1" stroke="none" stroke-width="1" fill="none" fill-rule="evenodd">
        <g id="Desktop-HD" transform="translate(-166.000000, -1120.000000)">
            <g id="page-pro-icn" transform="translate(166.000000, 1120.000000)">
                <g id="Page-1">
                    <path d="M36.3935077,14.0591908 L55.9589538,14.0591908 L55.9589538,9.65777538 L36.3935077,9.65777538 L36.3935077,14.0591908 Z M36.3935077,20.0274369 L55.9589538,20.0274369 L55.9589538,15.6260215 L36.3935077,15.6260215 L36.3935077,20.0274369 Z M36.3935077,25.9965138 L55.9589538,25.9965138 L55.9589538,21.5950985 L36.3935077,21.5950985 L36.3935077,25.9965138 Z M9.53972308,47.1545446 L29.1043385,47.1545446 L29.1043385,9.68602154 L9.53972308,9.68602154 L9.53972308,47.1545446 Z M36.3943385,47.1545446 L55.9589538,47.1545446 L55.9589538,27.5890985 L36.3943385,27.5890985 L36.3943385,47.1545446 Z M4.9896,51.7046677 L60.5688923,51.7046677 L60.5688923,5.13672923 L4.9896,5.13672923 L4.9896,51.7046677 Z" id="Fill-1" fill="#F2790F"></path>
                    <path d="M37.2251077,46.3237754 L55.1281846,46.3237754 L55.1281846,28.4198677 L37.2251077,28.4198677 L37.2251077,46.3237754 Z M37.2251077,25.1657446 L55.1281846,25.1657446 L55.1281846,22.4258677 L37.2251077,22.4258677 L37.2251077,25.1657446 Z M37.2251077,19.1974985 L55.1281846,19.1974985 L55.1281846,16.4576215 L37.2251077,16.4576215 L37.2251077,19.1974985 Z M10.3704923,46.3237754 L28.2735692,46.3237754 L28.2735692,10.5167908 L10.3704923,10.5167908 L10.3704923,46.3237754 Z M37.2251077,13.2284215 L55.1281846,13.2284215 L55.1281846,10.4885446 L37.2251077,10.4885446 L37.2251077,13.2284215 Z M4.15883077,52.5354369 L61.4004923,52.5354369 L61.4004923,4.30596 L4.15883077,4.30596 L4.15883077,52.5354369 Z M8.70895385,47.9853138 L10.3704923,47.9853138 L28.2735692,47.9853138 L29.9351077,47.9853138 L29.9351077,46.3237754 L29.9351077,10.5167908 L29.9351077,8.85525231 L28.2735692,8.85525231 L10.3704923,8.85525231 L8.70895385,8.85525231 L8.70895385,10.5167908 L8.70895385,46.3237754 L8.70895385,47.9853138 L8.70895385,47.9853138 Z M35.5635692,14.88996 L35.5635692,16.4576215 L35.5635692,19.1966677 L35.5635692,20.8582062 L35.5635692,22.4258677 L35.5635692,25.1657446 L35.5635692,26.8272831 L35.5635692,28.4198677 L35.5635692,46.3237754 L35.5635692,47.9853138 L37.2251077,47.9853138 L55.1281846,47.9853138 L56.7897231,47.9853138 L56.7897231,46.3237754 L56.7897231,28.4198677 L56.7897231,26.7583292 L56.7897231,25.1657446 L56.7897231,22.4258677 L56.7897231,20.7643292 L56.7897231,19.1966677 L56.7897231,16.4576215 L56.7897231,14.7960831 L56.7897231,13.2284215 L56.7897231,10.4885446 L56.7897231,8.82700615 L55.1281846,8.82700615 L37.2251077,8.82700615 L35.5635692,8.82700615 L35.5635692,10.4885446 L35.5635692,13.2284215 L35.5635692,14.88996 L35.5635692,14.88996 Z M5.82036923,50.8730677 L59.7389538,50.8730677 L59.7389538,5.96666769 L5.82036923,5.96666769 L5.82036923,50.8730677 Z" id="Fill-2" fill="#033159"></path>
                    <path d="M0,53.7093138 L62.7205846,53.7093138 L62.7205846,8.30769231e-05 L0,8.30769231e-05 L0,53.7093138 Z M2.73987692,50.9702677 L59.9807077,50.9702677 L59.9807077,2.73996 L2.73987692,2.73996 L2.73987692,50.9702677 Z M35.8061538,11.6632523 L53.7092308,11.6632523 L53.7092308,8.92254462 L35.8061538,8.92254462 L35.8061538,11.6632523 Z M8.95153846,44.7577754 L26.8554462,44.7577754 L26.8554462,8.95162154 L8.95153846,8.95162154 L8.95153846,44.7577754 Z M11.6914154,42.0187292 L24.1147385,42.0187292 L24.1147385,11.6923292 L11.6914154,11.6923292 L11.6914154,42.0187292 Z M35.8061538,17.6314985 L53.7092308,17.6314985 L53.7092308,14.8916215 L35.8061538,14.8916215 L35.8061538,17.6314985 Z M35.8061538,23.6005754 L53.7092308,23.6005754 L53.7092308,20.8606985 L35.8061538,20.8606985 L35.8061538,23.6005754 Z M35.8061538,44.7577754 L53.7092308,44.7577754 L53.7092308,26.8546985 L35.8061538,26.8546985 L35.8061538,44.7577754 Z M38.5468615,42.0178985 L50.9701846,42.0178985 L50.9701846,29.5945754 L38.5468615,29.5945754 L38.5468615,42.0178985 Z" id="Fill-3" fill="#FFFFFF"></path>
                </g>
            </g>
        </g>
    </g>
</svg>