<svg xmlns="http://www.w3.org/2000/svg" xmlns:xlink="http://www.w3.org/1999/xlink" viewBox="0 0 526 365"><defs><style>.cls-1,.cls-5{fill:none;}.cls-2{isolation:isolate;}.cls-3{clip-path:url(#clip-path);}.cls-4{clip-path:url(#clip-path-2);}.cls-5{stroke:#c8c8c8;stroke-miterlimit:10;}.cls-6{fill:#f19f3d;}.cls-7{fill:url(#New_Gradient_Swatch);}.cls-19,.cls-8{fill:#04243f;}.cls-16,.cls-9{fill:#f1790f;}.cls-10,.cls-14{fill:#ffcb98;}.cls-11{fill:url(#New_Gradient_Swatch-2);}.cls-12{fill:#ffe0c3;}.cls-13{fill:url(#New_Gradient_Swatch-3);}.cls-14,.cls-16,.cls-19,.cls-25,.cls-27,.cls-30{mix-blend-mode:multiply;}.cls-15{fill:#fff;}.cls-17{fill:#999;}.cls-18{fill:url(#New_Gradient_Swatch-4);}.cls-20{fill:#666;}.cls-21{fill:url(#linear-gradient);}.cls-22{fill:url(#linear-gradient-2);}.cls-23{fill:#033159;}.cls-24,.cls-25{fill:#b3875d;}.cls-26,.cls-27{fill:#f15116;}.cls-28{fill:url(#linear-gradient-3);}.cls-29{fill:url(#linear-gradient-4);}.cls-30{fill:#ddb38a;}</style><clipPath id="clip-path"><path class="cls-1" d="M207,363c99-12,168-27,231-1s163-7,158-182S456-53,356-10,179-21,80,4-55,113-29,209,108,375,207,363Z"/></clipPath><clipPath id="clip-path-2"><path class="cls-1" d="M197.47,363.92c80-8.88,135.78-20,186.69-.74S515.9,358,511.85,228.46s-97-122.87-177.8-91-123.35-6.27-205.28-15.3c-71.66-7.9-143.05,56.75-122,127.81S117.46,372.8,197.47,363.92Z"/></clipPath><linearGradient id="New_Gradient_Swatch" x1="240.06" y1="323.34" x2="278.51" y2="332.34" gradientUnits="userSpaceOnUse"><stop offset="0" stop-color="#ffe0c3"/><stop offset="1" stop-color="#ffcb98"/></linearGradient><linearGradient id="New_Gradient_Swatch-2" x1="89.24" y1="51.42" x2="180.12" y2="45.88" xlink:href="#New_Gradient_Swatch"/><linearGradient id="New_Gradient_Swatch-3" x1="183.54" y1="53.78" x2="178.49" y2="53.85" xlink:href="#New_Gradient_Swatch"/><linearGradient id="New_Gradient_Swatch-4" x1="131.51" y1="261.96" x2="198.08" y2="277.55" xlink:href="#New_Gradient_Swatch"/><linearGradient id="linear-gradient" x1="358.46" y1="105.65" x2="380.14" y2="105.65" gradientUnits="userSpaceOnUse"><stop offset="0" stop-color="#b3875d"/><stop offset="1" stop-color="#ffcb98"/></linearGradient><linearGradient id="linear-gradient-2" x1="312.15" y1="111.27" x2="363.56" y2="13.68" xlink:href="#linear-gradient"/><linearGradient id="linear-gradient-3" x1="323.69" y1="267.5" x2="277.05" y2="272.64" xlink:href="#linear-gradient"/><linearGradient id="linear-gradient-4" x1="341.8" y1="193.62" x2="418.61" y2="158.61" gradientUnits="userSpaceOnUse"><stop offset="0" stop-color="#b3875d"/><stop offset="0.07" stop-color="#bc8f64"/><stop offset="0.31" stop-color="#d9a97b"/><stop offset="0.54" stop-color="#eebc8b"/><stop offset="0.78" stop-color="#fbc795"/><stop offset="1" stop-color="#ffcb98"/></linearGradient></defs><title>prof-home-01</title><g class="cls-2"><g id="Layer_4" data-name="Layer 4"><g class="cls-3"><g class="cls-4"><line class="cls-5" x1="-139.41" y1="85.9" x2="2.74" y2="401.1"/><line class="cls-5" x1="-133.47" y1="85.9" x2="8.68" y2="401.1"/><line class="cls-5" x1="-127.53" y1="85.9" x2="14.62" y2="401.1"/><line class="cls-5" x1="-121.59" y1="85.9" x2="20.56" y2="401.1"/><line class="cls-5" x1="-115.65" y1="85.9" x2="26.5" y2="401.1"/><line class="cls-5" x1="-109.71" y1="85.9" x2="32.44" y2="401.1"/><line class="cls-5" x1="-103.77" y1="85.9" x2="38.38" y2="401.1"/><line class="cls-5" x1="-97.83" y1="85.9" x2="44.32" y2="401.1"/><line class="cls-5" x1="-91.89" y1="85.9" x2="50.26" y2="401.1"/><line class="cls-5" x1="-85.95" y1="85.9" x2="56.2" y2="401.1"/><line class="cls-5" x1="-80.01" y1="85.9" x2="62.14" y2="401.1"/><line class="cls-5" x1="-74.07" y1="85.9" x2="68.08" y2="401.1"/><line class="cls-5" x1="-68.13" y1="85.9" x2="74.02" y2="401.1"/><line class="cls-5" x1="-62.2" y1="85.9" x2="79.95" y2="401.1"/><line class="cls-5" x1="-56.26" y1="85.9" x2="85.89" y2="401.1"/><line class="cls-5" x1="-50.32" y1="85.9" x2="91.83" y2="401.1"/><line class="cls-5" x1="-44.38" y1="85.9" x2="97.77" y2="401.1"/><line class="cls-5" x1="-38.44" y1="85.9" x2="103.71" y2="401.1"/><line class="cls-5" x1="-32.5" y1="85.9" x2="109.65" y2="401.1"/><line class="cls-5" x1="-26.56" y1="85.9" x2="115.59" y2="401.1"/><line class="cls-5" x1="-20.62" y1="85.9" x2="121.53" y2="401.1"/><line class="cls-5" x1="-14.68" y1="85.9" x2="127.47" y2="401.1"/><line class="cls-5" x1="-8.74" y1="85.9" x2="133.41" y2="401.1"/><line class="cls-5" x1="-2.8" y1="85.9" x2="139.35" y2="401.1"/><line class="cls-5" x1="3.14" y1="85.9" x2="145.29" y2="401.1"/><line class="cls-5" x1="9.08" y1="85.9" x2="151.23" y2="401.1"/><line class="cls-5" x1="15.02" y1="85.9" x2="157.17" y2="401.1"/><line class="cls-5" x1="20.96" y1="85.9" x2="163.11" y2="401.1"/><line class="cls-5" x1="26.9" y1="85.9" x2="169.05" y2="401.1"/><line class="cls-5" x1="32.84" y1="85.9" x2="174.99" y2="401.1"/><line class="cls-5" x1="38.77" y1="85.9" x2="180.93" y2="401.1"/><line class="cls-5" x1="44.71" y1="85.9" x2="186.86" y2="401.1"/><line class="cls-5" x1="50.65" y1="85.9" x2="192.8" y2="401.1"/><line class="cls-5" x1="56.59" y1="85.9" x2="198.74" y2="401.1"/><line class="cls-5" x1="62.53" y1="85.9" x2="204.68" y2="401.1"/><line class="cls-5" x1="68.47" y1="85.9" x2="210.62" y2="401.1"/><line class="cls-5" x1="74.41" y1="85.9" x2="216.56" y2="401.1"/><line class="cls-5" x1="80.35" y1="85.9" x2="222.5" y2="401.1"/><line class="cls-5" x1="86.29" y1="85.9" x2="228.44" y2="401.1"/><line class="cls-5" x1="92.23" y1="85.9" x2="234.38" y2="401.1"/><line class="cls-5" x1="98.17" y1="85.9" x2="240.32" y2="401.1"/><line class="cls-5" x1="104.11" y1="85.9" x2="246.26" y2="401.1"/><line class="cls-5" x1="110.05" y1="85.9" x2="252.2" y2="401.1"/><line class="cls-5" x1="115.99" y1="85.9" x2="258.14" y2="401.1"/><line class="cls-5" x1="121.93" y1="85.9" x2="264.08" y2="401.1"/><line class="cls-5" x1="127.87" y1="85.9" x2="270.02" y2="401.1"/><line class="cls-5" x1="133.81" y1="85.9" x2="275.96" y2="401.1"/><line class="cls-5" x1="139.75" y1="85.9" x2="281.9" y2="401.1"/><line class="cls-5" x1="145.68" y1="85.9" x2="287.84" y2="401.1"/><line class="cls-5" x1="151.62" y1="85.9" x2="293.77" y2="401.1"/><line class="cls-5" x1="157.56" y1="85.9" x2="299.71" y2="401.1"/><line class="cls-5" x1="163.5" y1="85.9" x2="305.65" y2="401.1"/><line class="cls-5" x1="169.44" y1="85.9" x2="311.59" y2="401.1"/><line class="cls-5" x1="175.38" y1="85.9" x2="317.53" y2="401.1"/><line class="cls-5" x1="181.32" y1="85.9" x2="323.47" y2="401.1"/><line class="cls-5" x1="187.26" y1="85.9" x2="329.41" y2="401.1"/><line class="cls-5" x1="193.2" y1="85.9" x2="335.35" y2="401.1"/><line class="cls-5" x1="199.14" y1="85.9" x2="341.29" y2="401.1"/><line class="cls-5" x1="204.88" y1="85.9" x2="347.03" y2="401.1"/><line class="cls-5" x1="210.82" y1="85.9" x2="352.97" y2="401.1"/><line class="cls-5" x1="216.76" y1="85.9" x2="358.91" y2="401.1"/><line class="cls-5" x1="222.7" y1="85.9" x2="364.85" y2="401.1"/><line class="cls-5" x1="228.64" y1="85.9" x2="370.79" y2="401.1"/><line class="cls-5" x1="234.58" y1="85.9" x2="376.73" y2="401.1"/><line class="cls-5" x1="240.52" y1="85.9" x2="382.67" y2="401.1"/><line class="cls-5" x1="246.46" y1="85.9" x2="388.61" y2="401.1"/><line class="cls-5" x1="252.4" y1="85.9" x2="394.55" y2="401.1"/><line class="cls-5" x1="258.34" y1="85.9" x2="400.49" y2="401.1"/><line class="cls-5" x1="264.28" y1="85.9" x2="406.43" y2="401.1"/><line class="cls-5" x1="270.21" y1="85.9" x2="412.37" y2="401.1"/><line class="cls-5" x1="276.15" y1="85.9" x2="418.3" y2="401.1"/><line class="cls-5" x1="282.09" y1="85.9" x2="424.24" y2="401.1"/><line class="cls-5" x1="288.03" y1="85.9" x2="430.18" y2="401.1"/><line class="cls-5" x1="293.97" y1="85.9" x2="436.12" y2="401.1"/><line class="cls-5" x1="299.91" y1="85.9" x2="442.06" y2="401.1"/><line class="cls-5" x1="305.85" y1="85.9" x2="448" y2="401.1"/><line class="cls-5" x1="311.79" y1="85.9" x2="453.94" y2="401.1"/><line class="cls-5" x1="317.73" y1="85.9" x2="459.88" y2="401.1"/><line class="cls-5" x1="323.67" y1="85.9" x2="465.82" y2="401.1"/><line class="cls-5" x1="329.61" y1="85.9" x2="471.76" y2="401.1"/><line class="cls-5" x1="335.55" y1="85.9" x2="477.7" y2="401.1"/><line class="cls-5" x1="341.49" y1="85.9" x2="483.64" y2="401.1"/><line class="cls-5" x1="347.43" y1="85.9" x2="489.58" y2="401.1"/><line class="cls-5" x1="353.37" y1="85.9" x2="495.52" y2="401.1"/><line class="cls-5" x1="359.31" y1="85.9" x2="501.46" y2="401.1"/><line class="cls-5" x1="365.25" y1="85.9" x2="507.4" y2="401.1"/><line class="cls-5" x1="371.19" y1="85.9" x2="513.34" y2="401.1"/><line class="cls-5" x1="377.12" y1="85.9" x2="519.27" y2="401.1"/><line class="cls-5" x1="383.06" y1="85.9" x2="525.21" y2="401.1"/><line class="cls-5" x1="389" y1="85.9" x2="531.15" y2="401.1"/><line class="cls-5" x1="394.94" y1="85.9" x2="537.09" y2="401.1"/><line class="cls-5" x1="400.88" y1="85.9" x2="543.03" y2="401.1"/><line class="cls-5" x1="406.82" y1="85.9" x2="548.97" y2="401.1"/><line class="cls-5" x1="412.76" y1="85.9" x2="554.91" y2="401.1"/><line class="cls-5" x1="418.7" y1="85.9" x2="560.85" y2="401.1"/><line class="cls-5" x1="424.64" y1="85.9" x2="566.79" y2="401.1"/><line class="cls-5" x1="430.58" y1="85.9" x2="572.73" y2="401.1"/><line class="cls-5" x1="436.52" y1="85.9" x2="578.67" y2="401.1"/><line class="cls-5" x1="442.46" y1="85.9" x2="584.61" y2="401.1"/><line class="cls-5" x1="448.4" y1="85.9" x2="590.55" y2="401.1"/><line class="cls-5" x1="454.34" y1="85.9" x2="596.49" y2="401.1"/><line class="cls-5" x1="460.28" y1="85.9" x2="602.43" y2="401.1"/><line class="cls-5" x1="466.22" y1="85.9" x2="608.37" y2="401.1"/><line class="cls-5" x1="472.16" y1="85.9" x2="614.31" y2="401.1"/><line class="cls-5" x1="478.09" y1="85.9" x2="620.25" y2="401.1"/><line class="cls-5" x1="484.03" y1="85.9" x2="626.18" y2="401.1"/><line class="cls-5" x1="489.97" y1="85.9" x2="632.12" y2="401.1"/><line class="cls-5" x1="495.91" y1="85.9" x2="638.06" y2="401.1"/><line class="cls-5" x1="501.85" y1="85.9" x2="644" y2="401.1"/><line class="cls-5" x1="507.79" y1="85.9" x2="649.94" y2="401.1"/><line class="cls-5" x1="513.73" y1="85.9" x2="655.88" y2="401.1"/><line class="cls-5" x1="519.67" y1="85.9" x2="661.82" y2="401.1"/><line class="cls-5" x1="525.61" y1="85.9" x2="667.76" y2="401.1"/></g><path class="cls-6" d="M234.5,303.5l1.58,1.38a4.43,4.43,0,0,0,1.29-2.87,15.74,15.74,0,0,0-.54-3.33S234.5,301.38,234.5,303.5Z"/><path class="cls-7" d="M256.13,311c-1.37-3.5-.25-4.12-.25-4.12l2.88-10.25s.34-1.34-3.62-1.62c-2.29-.17-3-1.12-6.37,1.13a14.91,14.91,0,0,1-8,2.88,11.42,11.42,0,0,0-4.37,1.25s.5,2.63-1,7.25-2.75,6.5-4.25,12.63-.75,5.63-.5,11.63-1.25,12.38-.37,15.13,3.88,1.63,3.88,1.63l.88.38a4.71,4.71,0,0,0,2.38,0,9.05,9.05,0,0,0-2.12,2.63c-.62,1.38-.62,2.25-.37,2.63s7.13-.62,9.63-2.37a16.45,16.45,0,0,0,4.13-4.5l1.75-1c1.75-1,8.25-16.5,8.25-16.5s-.25-4.37-.25-7.12A38.78,38.78,0,0,0,256.13,311ZM237,343.88l.29-1a6.37,6.37,0,0,1,1.67.08,15.89,15.89,0,0,1,2.42.71Zm3.58-7.71c-.87.83-.17,2.17-.17,2.17l-2.42-.46a21.44,21.44,0,0,0,0-2.42,45,45,0,0,1,.29-4.54l1.29,1.46c1.29,1.46,2.08,2.38,2.08,2.38A5,5,0,0,1,240.54,336.17Z"/><path class="cls-8" d="M109.33,273S106,279.5,106,285.67s-1.17,10.83-2.17,17.67-.17,19.5,1.5,28,2.67,11.33,6.33,20.83A73.43,73.43,0,0,1,116,371h53a96.92,96.92,0,0,1,.5-14l.83-7.33s0,.83,2.33,10,2.67,11.67,2.67,11.67h56.83s.67-25.33-1.33-40.5-3.17-22.33-4.33-26-3.33-6.33-3.33-10.33S222,283.33,220.83,278s-3-6.5-3-6.5l-1.17-7.67Z"/><path class="cls-9" d="M255,278s1.25-2.5.75-7.75,2-6.5,1.25-14.5-2.25-12.25-2.5-16.75-2.75-13-1.25-17.5,2.75.25,1.5-6.25-4.25-32.75-13-60.75-11.25-42-24.75-46.75-38.46-15.37-38.46-15.37.21-7.12-3.29-8.62l-3.5-1.5s-39.87-.85-42.25,6.58l-1,8.67s-20.75,8.25-31.25,14.25A61.78,61.78,0,0,0,80,127s-8,26-11.5,49.75S58.25,212.75,60,217s3.75,9.25,4,12.75a9.92,9.92,0,0,0,2,5.5s-1.5,4.5,2.75,4.75,8,11.75,11.25,12,7.25,1,7.25,1-1.25,8,11,12.75,15.25,7.5,15.25,7.5h6c3,0,17.25-.75,17.25-.75s7.75,6,21,7.75,20,.75,20,.75l1.5,2.5S195,277,204,272.25s12.25-4,15.25-9.25,3.5-10,1.25-10.5l-2.25-.5s1.25-2.25,0-4-.5-9.75-1.75-15a24.43,24.43,0,0,0-3-7.75l2.25-2.75s5.25-.5,6.25,7,0,7.5,1.5,9.5,3.75,5.75,3.5,12.5,2.25,17.75,3.5,24,2,9,2,9l2,19s0-4.25,6.25-4.5,8.83-3.87,11.33-3.87,7.42,1.63,7.42,1.63ZM101.33,226l-4.17-1.83-.33-2A56.17,56.17,0,0,0,97,215.5a39.37,39.37,0,0,0-1.5-7.17s3.83-4.5,6.67-7.67,1.33-13.33,1.33-13.33a54.47,54.47,0,0,1,2.33,14.17c0,6.83,3.83,17.5,3.83,17.5Z"/><path class="cls-10" d="M130.63,76.88s2.88,13,2.25,15.75A20.45,20.45,0,0,1,130.63,98,177.81,177.81,0,0,0,145,109.5c10.13,7.5,11.25,12.75,11.25,12.75s2.13-4.12,9.25-12.75,13-17.12,13-17.12-4.84.09-5.41-6.87-.62-9.62-.62-9.62Z"/><path class="cls-11" d="M144.17,3.83c15.29-1.22,32.33,6.83,34.5,25.83S181.5,64.83,174,76.33s-9.83,14.17-19.5,15.33-19.17-8.67-24-13.5-11-27.17-11.67-43.5S125.33,5.33,144.17,3.83Z"/><path class="cls-12" d="M121.75,50.75s-3.5-6.42-5-5.25.08,4.83.42,7.17.08,8.17,2.25,10.17,3.5,5.71,4.92,6a2.14,2.14,0,0,0,2.08-.5Z"/><path class="cls-13" d="M179.9,43.25s0-1.5,1.85-1.09,1.83,4.83,1.83,8.75-1.33,7.42-1.92,10.17a8.23,8.23,0,0,1-3.13,4.49A44.45,44.45,0,0,0,180,54.68C180.1,48.5,179.9,43.25,179.9,43.25Z"/><path class="cls-8" d="M123.88,22.25S132.38,11.5,134,11.5s11.75,5.63,16.5,5.38,12.63-.5,17.75,2.5,6.5,6.13,6.5,6.13-3.12,3.25-3,5.25.88,3.75,3,8,3.57,7.38,3.79,11.63l.21,4.25s1.37-7.89,1.19-10.26.64-10.24-1.4-19.74S167.75.38,143.63,1.25s-26.25,23.63-26.5,28.63.61,15.66.61,15.66,3.45,3.09,4,5.22a32.21,32.21,0,0,1,.75,5.13l.77.61s.1-5-.21-9.48-.69-7.5,1-9S116.44,29.75,123.88,22.25Z"/><path class="cls-14" d="M164.13,37.75a18.42,18.42,0,0,0-3.81,1.88l-2.06,1.31a15.28,15.28,0,0,1,5.88-.62c3.19.31,4.75,3.06,5.44,2.94l.69-.12s-.25.88-2.75-.56-6.81-2.75-9.25-.94a6.56,6.56,0,0,0-2.62,3.19c-.25.25.31,1.19,2,1.5s6.69,1,6.69,1l-.5-.56a2.16,2.16,0,0,0,1.94,0,20.55,20.55,0,0,0,2.94-1.87,17.2,17.2,0,0,1-1.62,1.88,2.06,2.06,0,0,1-1.44.56l1.81.43a15.11,15.11,0,0,1-6.5,0c-4.06-.74-5.87-1.52-6.06-2.38s-.12-1.42-.62-.86a2.08,2.08,0,0,0,.5,2.88c1.13.69,2.31,1.06,2.5,4.06s2.5,5.69,6.69,8.56,5.81,2.88,4.75,7.25-5.75,11.5-5.75,11.5,3.25-5.31,3.63-7.87-1-3.5-1-3.5-.72-.44-7.72-.62-8.69-.62-8.69-.62a2,2,0,0,0,.94-2.06c-.31-1.31-.61-1.25-.61-1.25a17.31,17.31,0,0,1-3.21-.75,15,15,0,0,1-2.81-1.31,11,11,0,0,1,5.08,1c2.3,1.19,5,.94,5.82-.12s5-1.31,5-1.31a7.91,7.91,0,0,1-1.56,1.19,11.2,11.2,0,0,1-1.94.75s4.13-1.19,4.44-2a3.25,3.25,0,0,0-1.75-3.77c-1.87-.92-4-.92-4.5-1.67s-.81-2.56-1.5-4.12,1.06-2.12-.06-6.69S156.56,37.13,164.13,37.75Z"/><path class="cls-14" d="M143.25,58.08a14.65,14.65,0,0,1,1.08-2.58s-2.5.92-4.58,4.92-5.17,4.5-4.33,7.58a50.45,50.45,0,0,0,1.83,5.5s-2-5.25-1.25-6.67,1.42-.75,3.92-5.25,2.75-3.75,2.75-3.75l.08,1.42Z"/><path class="cls-14" d="M147.33,79.92s.67-1.75,4.92-1.75,4.83-.42,6.25-2a36.8,36.8,0,0,1,3.58-3.33s-3.5,4-4.58,5.5S150.5,77.67,147.33,79.92Z"/><path class="cls-14" d="M132.29,39.5s4.54,0,6.92,1.5a21.86,21.86,0,0,1,3.38,2.42,5.72,5.72,0,0,0-4.71-1.79,11.32,11.32,0,0,0-6.62,2.71,6.13,6.13,0,0,1-2,1.46,3.94,3.94,0,0,0,1.29-.25l.33-.21-.17.67s.46-2,3.92-3.21,5.46-.42,7,.79,1.92,1.38,1.92,1.83-1.37.88-2.83,1.67-1.25,1.21-3.71,1.38a33.29,33.29,0,0,1-3.83.08,11.09,11.09,0,0,0,2,.38l.88,0a8.73,8.73,0,0,0-2.37.25l-.83.29a22,22,0,0,1,3.29-.21,3.12,3.12,0,0,0,1.58-.17,21.13,21.13,0,0,0-2.42.83l-.79.38s4-.92,5.29-1.33a11.21,11.21,0,0,0,4.21-3.21c.33-.71-.75-1.83-1.12-3.92s-1.37-4.33-5-4S131,38.75,132.29,39.5Z"/><path class="cls-8" d="M156,44.47s2.34-2.62,5.09-3,4.34.63,6.34,1.84,2.59.66,3.19.34l.59-.31a3.89,3.89,0,0,1-1.06.84l-.44.16a8.48,8.48,0,0,0,1.34.09l.5,0a3.88,3.88,0,0,1-1.5.38h-.75l-.06.84a8.28,8.28,0,0,0-1.94-1.41c-.72-.25-.59-.19-2.62,0l-2,.16a19.53,19.53,0,0,0,3.25-.56l.75-.31a7.59,7.59,0,0,0-5-1.66,4,4,0,0,0-3.47,2.34,3,3,0,0,0,.84.22h.31s.25.25-1.28.44S155.41,45.09,156,44.47Z"/><path class="cls-15" d="M135.17,44a13,13,0,0,0-2.35,1.81l1.44.31a6.25,6.25,0,0,0,1.25.09,2,2,0,0,1-.54-1.34A2,2,0,0,1,135.17,44Z"/><path class="cls-15" d="M140.59,44.22a4.21,4.21,0,0,0-1.73-.76,2,2,0,0,1,.6,1.42,2,2,0,0,1-.31,1c.56-.08,1-.15,1.28-.2a4.84,4.84,0,0,0,1.75-.47C142.16,44.84,141.53,44.81,140.59,44.22Z"/><path class="cls-8" d="M138.87,43.46a11.39,11.39,0,0,0-1.49-.15,4.29,4.29,0,0,0-2.21.69,2,2,0,0,0-.21.87,2,2,0,0,0,.54,1.34,30.07,30.07,0,0,0,3.66-.3,2,2,0,0,0,.31-1A2,2,0,0,0,138.87,43.46Z"/><path class="cls-15" d="M164.35,44.12a6,6,0,0,0,2.34-.72,9.13,9.13,0,0,0-2.27-1.17,1.9,1.9,0,0,1-.07,1.89Z"/><path class="cls-15" d="M160.45,42.06a3.83,3.83,0,0,0-2.29,2.09,5.47,5.47,0,0,0,2.42.21,1.93,1.93,0,0,1-.13-2.3Z"/><path class="cls-8" d="M164.35,44.12a1.9,1.9,0,0,0,.07-1.89,7,7,0,0,0-2.79-.42,4.45,4.45,0,0,0-1.18.25,1.93,1.93,0,0,0,.13,2.3l1.74-.05A17.13,17.13,0,0,0,164.35,44.12Z"/><path class="cls-8" d="M143.06,45.41c.16.15-2.16-1.62-3.72-1.84a6.26,6.26,0,0,0-4.78,1L133,45.69a9,9,0,0,0,3.19.38c1.88-.09,3.75-.31,3.75-.31a27.28,27.28,0,0,1-5.06.5,6.7,6.7,0,0,1-2.28-.41s-.06.38-1.16.78a7.76,7.76,0,0,1-1.72.47s1.53-1.16,3.66-2.53S138.78,41.44,143.06,45.41Z"/><path class="cls-8" d="M138.34,40.25a33,33,0,0,0-3.91-.47c-1.78,0-3.12-.47-4.22.5s-2.16,2.53-2.78,2.5-1.12-.94.31-3.09,3.22-2.28,5.41-2.37,5.56-1.09,7.41-.53,3,1.34,2.66,2.56,0,1.91-1.44,1.91S139.84,40.25,138.34,40.25Z"/><path class="cls-8" d="M154.5,36.94c-.19,1.12-.16,2.66,1.47,2.66a45.93,45.93,0,0,0,7.53-1.16,9.52,9.52,0,0,1,6.81,1.34c1.69,1,1.75.63,1.75.06a4,4,0,0,0-2.19-3.37c-2-1.19-4.19-2.81-7.09-2S154.75,35.44,154.5,36.94Z"/><path class="cls-8" d="M160.16,68.31s.28.19.34,1.38.06,2.38.06,2.38a16.2,16.2,0,0,0,3.5-2.75c1.19-1.41,1.13-1.69,1.13-1.69S165.28,67.09,160.16,68.31Z"/><path class="cls-8" d="M143.84,69.22A14.69,14.69,0,0,0,144,71c.16.88.28,1.47.28,1.47s-3.93-2.58-4-3.17S143.84,69.22,143.84,69.22Z"/><path class="cls-10" d="M158.33,68.13a24.6,24.6,0,0,1-8.71.33c-2.21-.17-9.83.54-9.83.54-.5.21.71,1.42,3.08,4.21a12.85,12.85,0,0,0,9.63,5c4.63.38,7.46-3.87,9.5-6a20.75,20.75,0,0,0,3.63-4.75C165.63,67,162.63,67.21,158.33,68.13Zm6.85-.5a12.51,12.51,0,0,1-4.52,3.88c-3.17,1.75-9,2.88-12.54,2s-7.12-3.21-7.79-4.21c-.13-.2,3,.08,6.46.5s6.42.79,9,0,4.92-1.29,6.92-1.75S165.33,67.42,165.19,67.63Z"/><path class="cls-15" d="M143.81,70.22a.54.54,0,0,1,.78-.22l.5.31a1,1,0,0,1,1.19-.34,5.71,5.71,0,0,1,1,.66s0-1,1-.59,1.16.91,1.16.91.16-.84,1.53-.72,1.53.94,1.53.94.19-.84,1.5-1,1.56.5,1.56.5.81-1.25,1.31-1l.5.28s1-.91,1.28-.81a1.14,1.14,0,0,1,.53.47s0-.72.56-.72a1.29,1.29,0,0,1,1,1.81l-.44.94-1,0-.44.69-1.22-.69s.13.81-.66.84-1.31,0-1.31,0-.12.44-.84.5-1.53.47-1.84.19l-.31-.28s-.12.19-.62.25-1.91.38-2.22.13l-.31-.25a5,5,0,0,1-1.31-.16c-.78-.19-.78-.78-.78-.78s-.28.5-.41.69l-.12.19s-.84,0-1-.31-.47-.87-.47-.87l-.41.69-.75-.41Z"/><path class="cls-6" d="M181.13,99.75c-.57,3.63-12.75,19.75-12.75,19.75s4.38-7.12,1.25-7.75-10.87,4.88-10.87,4.88,1.81-1.2,6.5-6.62c19.5-22.56,7.63-27,7.63-27l-.37-2.12s4.5,2.5,5.13,4.25S181.88,95,181.13,99.75Z"/><path class="cls-6" d="M131.25,97.13l14.13,12.75s-2.37-.25-2.37,3.88a24.55,24.55,0,0,0,1.38,7.75s-19-19.12-19-21.5,2.25-4.12,2.63-8.37,4.25-6.5,4.25-6.5l.38,2.69a5.49,5.49,0,0,0-2.75,4.56C129.56,95.81,131.25,97.13,131.25,97.13Z"/><path class="cls-16" d="M105.38,196.38a146.65,146.65,0,0,1,1.5-14.75c1-5.25.63-6.75,4.88-7.5a54.73,54.73,0,0,1,8.38-.75s-5.37-1-9.12-.25-5,3-5,3-5.87-8.37-10.62-16.25L90.63,152s13.13,19.5,13.5,22.75,1.25,2.5,1,4.75-.37,1.75-.62,4.5-1,3.33-1,3.33A42.55,42.55,0,0,1,105.38,196.38Z"/><path class="cls-16" d="M221.13,130.5s-.37,8,0,15.75-7.87,6.13-7.87,6.13,5.88,18.13.25,19.88-7.12,10.13-7.12,10.13-9-2.62-10-.25l-1,2.38s12.88,12.38,9.88,17.5-15.62,10-15.62,13.88,27,29.46,23.21,34.46-17.83,4.17-23.5,10.33-7.67,8.83-7.67,8.83,4.83-8.17,14-10.5a67.39,67.39,0,0,1,15-2.33s-5.33,2.5-12.5,6.17A111.69,111.69,0,0,0,182.83,273s3.5,3.83,3.5,4.33a10,10,0,0,0,1.17,2.33s12.17-6.67,18.67-10.33,11.67-7.67,12.67-11.5a39.61,39.61,0,0,1,1.67-5.33s-1.17,3.33-3.67,3.67l-2.5.33s3.5-2.33,3.92-4.5,1.08,1.17,0-4-.42-11-2.58-17l-2.17-6,2.25-2.5a3.93,3.93,0,0,1,3.75,1.5c1.67,2,2.67,6.67,2.83,10.17S223.5,239,223.5,239s0-2.5,8.5-4l8.5-1.5a106.45,106.45,0,0,0-11.5.33l-3.83.5s-2-4,5-5.5l7-1.5s-10.83,1.33-12.17,1.83l-1.33.5s-1.5-2.83,4-4.67l5.5-1.83s-6.5,2.5-9.67.33l-3.17-2.17a92.22,92.22,0,0,0,14.5-1.17l5.83-1.17s-15.67.83-17.83-.33l-2.17-1.17a23,23,0,0,1,8.17-1.67h4.33s-10.83-1.83-13.5-8L217,201.67s-.17-2.17,3-1.83l3.17.33s-8.67-3.83-4.83-8.5,12.5-3.17,12.5-3.17-11.67-.67-9.17-5.33,10.67-7.67,10.67-7.67a21.21,21.21,0,0,0-8.5,1.67l-4,1.83s6.17-3.33,10.33-17.17-2.67-43.5-2.67-43.5,2.17,15,.17,25.67a72.53,72.53,0,0,1-7.5,20.17s4.33-7.17,2.67-18.33S221.13,130.5,221.13,130.5Z"/><path class="cls-16" d="M113.5,273.25a12.6,12.6,0,0,0,1.33-5.58L115,264a5.62,5.62,0,0,1,4.83,2.5c2.17,2.83,4.33,6.33,4.33,6.33A55.74,55.74,0,0,1,113.5,273.25Z"/><path class="cls-17" d="M103.83,227.17s50.5-48,52.17-49.33,5,.17,5.67,2S181,239.67,181.5,243s-.83,4.17-2.67,5.67-57.33,43.67-59.17,44.83a3.67,3.67,0,0,1-5.17-1.83c-.5-1.83-3.33-20.33-3.33-20.33l4.83,3.08,10.67-.42s-1.5-6.17-5.33-7.67l-3.83-1.5a18.4,18.4,0,0,1,3.17-11c3.67-5.33,11.83-7.33,11.83-7.33s-6.33-3.17-10-4.5-5.17-6.5-8.17-6.83-3.5-3.17-6.67-5.33S103.83,227.17,103.83,227.17Z"/><path class="cls-8" d="M101.33,226s52.67-46.67,54.33-48,2.83-1.17,3.5.67S178.5,238.5,179,241.83s-.83,4.17-2.67,5.67S119,291.17,117.17,292.33s-2.83,0-3.33-1.83-5.17-20.33-5.17-20.33l4.83,3.08,10.67-.42s-1.5-6.17-5.33-7.67l-3.83-1.5a18.4,18.4,0,0,1,3.17-11c3.67-5.33,11.83-7.33,11.83-7.33s-6.33-3.17-10-4.5-5.17-6.5-8.17-6.83-3.5-3.17-6.67-5.33S101.33,226,101.33,226Z"/><path class="cls-18" d="M115,263.67a17.33,17.33,0,0,1,4.13-12c5.3-6,10.88-6.29,10.88-6.29a36.33,36.33,0,0,1,7.25-.71c4.13,0,9.13,2,13.13,2.25s14.25.75,14.63,1.63.75,5.88-3.87,6.63-13.5-.12-13.5-.12a2.72,2.72,0,0,1,1.75,2.5,10.52,10.52,0,0,1-.5,3.75s3.38.13,5,1.13l1.63,1a13.86,13.86,0,0,1,3.88.38l3-2.5s2.38,5.38,2.38,6.88-1.87,3.13-1.87,3.13L158,272a6.43,6.43,0,0,1-2.5,2.13c-1.62.75-3.75,2.13-5,2.88s-3.12,2.38-4.62,3.13-4.12,1.75-4.12,1.75-4.12,2.5-6,2.5-3.25-2.25-4.25-3.75-3.79-2.46-7.33-7.79S120.63,265.33,115,263.67Z"/><path class="cls-14" d="M148.88,261.25l-1.31,1.63a5.75,5.75,0,0,0,1.19-3c0-1.5-.06-2.44-2.94-4l-2.87-1.56a21.37,21.37,0,0,0,3.69.75h1.06a2.92,2.92,0,0,1,1.69,3.13C149.06,260.5,148.88,261.25,148.88,261.25Z"/><path class="cls-14" d="M159.38,263.75s1.81-.69,2.69.31l.88,1-.44-1.19s1.56,1.94,1.25,3.25-1.94,1-9.5,3.31-9.69,3.13-11.44,2.06l-1.75-1.06s-.62,3.06,7.75,1.94S158,272,158,272l4.88-.75a4.27,4.27,0,0,0,1.75-3.56c-.25-2.12-2.25-6.44-2.25-6.44Z"/><path class="cls-14" d="M132.81,272.13s4.75,2.44,5.56,4.19,3.69,3.56,5.31,3.06a7.07,7.07,0,0,0,4-2.69l.81-1.31a20.28,20.28,0,0,1-2.06.31,3.06,3.06,0,0,1-2.37-.56l1.63-.06L158,272a5.17,5.17,0,0,1-2.5,2.13,89.32,89.32,0,0,0-7.69,4.63,30.31,30.31,0,0,1-6.62,3.31c-3.5,1.44-4.56-.12-5.44-1.44a20.82,20.82,0,0,0-3.5-3.31s2.88,4.63,6.44,4.19a17.63,17.63,0,0,0,6.06-1.87s-3.87,1.88-5.75-1S135,273,132.81,272.13Z"/><path class="cls-19" d="M134.63,333.38s15.88,1,24.13,4.88,19.13,1.5,19.13,1.5.63-4.5,12.88-8.25,28.5-7.5,28.5-7.5-24.25,7.75-31,12.25l-6.75,4.5s-.75,2.38,9,.5a116.36,116.36,0,0,1,20.25-1.75A147.84,147.84,0,0,0,192,342.63l-7.5,2s2.75-1.5,10.38,2.5l7.63,4a41.58,41.58,0,0,0-15.62-3.62h-8a63.82,63.82,0,0,0,12.88,4.25l7.13,1.5s-10.62-.12-16.37-.87l-5.75-.75s2.38,2,11.75,6.13,21.38,5.13,21.38,5.13-8-.25-13.75-.75l-5.75-.5s2.63,2.75,8.5,4.38,11.25,2.63,11.25,2.63l-8.62,2.63-26.17.08-5-21.67s-.83,5.83-1.08,11.71S169,371,169,371H131.38s10-3.12,13.38-13.5,5.88-8.37-4.12-8.25a67.79,67.79,0,0,1-17.5-2s19.38,4.25,27.5-.62l8.13-4.87S154.5,336.63,134.63,333.38Z"/><path class="cls-14" d="M238,337.88a13.19,13.19,0,0,1,0,2.94c-.19,1.75-.69,2.06-.69,2.06a5.84,5.84,0,0,1,2.25.13,8.85,8.85,0,0,1,1.83.67,4,4,0,0,1,.23-2.29l.5-1.12s-.62-.19-.75-2.12a9.74,9.74,0,0,1,.35-3.37,7.25,7.25,0,0,1-1.12,1.42,2,2,0,0,0-.17,2.17Z"/><path class="cls-14" d="M241.33,343.67l.29,3.33a4.15,4.15,0,0,0-1.62.81l-.44.5-2.19.56a4,4,0,0,1-2.37,0l-1-.44a5.25,5.25,0,0,0,2.31-2.69l.63-1.81Z"/><path class="cls-10" d="M241.38,353.06a9.65,9.65,0,0,0,5.75-7.69,27.77,27.77,0,0,0-.44-10.81l1.88,2.31s.56,1.31,1.75-2.06.69-4.69.69-4.69,1.56.75,1.06,3.63-2.25,4.56-2.75,7.31a59.35,59.35,0,0,0-.69,6.19S245.5,352.5,241.38,353.06Z"/><path class="cls-10" d="M255,326.69s2.31,3.31.94,5.13a5.42,5.42,0,0,1-3.31,2.06,40.87,40.87,0,0,1-2.25,6.13c-1.19,2.31-1.75,7.25-1.75,7.25a6.24,6.24,0,0,0,2.5-1.87c3.06-4.56,7.5-15.62,7.5-15.62s-.5.38-1.62-.69A15.77,15.77,0,0,1,255,326.69Z"/><path class="cls-8" d="M236.25,303s2.42.58,6.33,1.08,4.5,1,5.17,1.83.17,1.08,3.83,1.25,5.5-.75,6.08-1.75,1-6.67,1-8.08a2.71,2.71,0,0,0-2.17-2.58c-.83,0-6-.33-7.08.17s-.48,1.63-3.33,2.17c-8.83,1.67-9.71,3.17-9.71,3.17Z"/><path class="cls-20" d="M252.5,295.67c-1.25.08-1.37,1.33-1.54,2.25a38.54,38.54,0,0,0-.37,6.63c.21,1,.17,1.54,1.08,1.58a31.15,31.15,0,0,0,4.88-.21c.79-.21,1.13-.25,1.42-1.58a28.47,28.47,0,0,0,.67-6.46c-.17-1.71-.71-2.54-2.08-2.46Z"/><path class="cls-8" d="M361,68.79s-2.7,8.89-6.17,21.26a120.32,120.32,0,0,1-6.94,19.33s11.18-8.31,17.35-6,11,9.08,11,9.08S367.94,70.14,361,68.79Z"/><path class="cls-21" d="M359,95.94s-1.83,8.5-4.82,11.5-11.76,7.92-11.76,7.92l-5.11-3a6,6,0,0,1,3.85-2.22c2.7-.48,11.08-6.28,14.26-9.86A32.65,32.65,0,0,0,359,95.94Z"/><path class="cls-17" d="M305.56,125.61a40.91,40.91,0,0,1-7.53-.81c-3.76-.81-9,1.48-9,1.48a92.36,92.36,0,0,0-13.31,4.44c-7,3-9.41,7-12.64,12.1s-4,5.65-2.42,7.53.27,3.5-1.61,5.38-1.88,2.42-3.5,8.61-2.69,9.41-6.19,11.29-9.95,5.11-8.07,13.45l1.88,8.34S241,199,241,207.63s1.61,27.43,7,30.39a113.7,113.7,0,0,0,14,6.45c6.45,2.69,8.07,2.69,8.07,2.69s-2.15,7.26-4.84,19.36l-2.69,12.1s-7.26,3.76-6.72,11A50.06,50.06,0,0,0,258.23,302s-1.61,4-1.88,12.37-.27,45.81-.27,45.81h164s-7.26-62.21-6.45-70.82,0-9.95-1.34-11.83-3.5-10.76-3.5-10.76,8.87-13.45,14.52-23.13,8.61-22.05,7-47.6S422.53,145,418,137.45s-5.65-7-11.56-8.61S387,122.39,387,122.39Z"/><path class="cls-20" d="M381.48,207.36a9.88,9.88,0,0,0,4.91-.47c2.85-.95,5.22-3.08,5.22-11.38s7.59-40.56,10.2-46.72,6.88-7.35,6.88-7.35l-3.32-1.9s-5.46,2.85-10,25.62-3.79,30.12-7.35,32.26l-3.56,2.13-3.73,2.09Z"/><path class="cls-20" d="M270.06,247.16a35.21,35.21,0,0,0,5.68,1.71,26.74,26.74,0,0,0,5.88.62l3.94,40.07s-2.59,2.24-5.2-1.32-5.93-5.22-5.93-14,1.66-15.89.47-19.92A17.44,17.44,0,0,0,270.06,247.16Z"/><path class="cls-20" d="M272.07,294.41s-12.81.95-13.76-5.46a7.72,7.72,0,0,1,4.27-8.54l-.71,11.15S265.19,294.65,272.07,294.41Z"/><path class="cls-8" d="M380.76,201.63l.72,5.74s-4.3,2-5.2,5.38l-.9,3.41s-3.59-.36-11.12,5.56-22.23,16-24.56,16.67-1.08,3.41-1.08,3.41l1.43,3L353.33,273a89.85,89.85,0,0,0,7.53,8.07c4.84,4.66,7,5,7,5l-81.57,9.5-4.66-46.07s-.72-1.08,10.4-6.81,20.26-11.25,20.26-11.25l4.12-12.59,24.65-19.94,25.37-.13Z"/><path class="cls-22" d="M335.75,27.84c-17.66-.42-28.62,10.58-30.07,27.83s2.89,26.82,2.89,31.6,4.19,23.34,19.66,25.66,28.19-5.51,32.38-21.16S372.75,28.71,335.75,27.84Z"/><path class="cls-23" d="M337.34,30.72s.58,3.33,1,3.77l.43.43s-2.75.14-5.93.14a9.63,9.63,0,0,0-4.63.87,7.67,7.67,0,0,1,4.19,2.61l1.45,2s-9.69-6.38-17.06.14-6.4,12.92-8.24,23a92.5,92.5,0,0,1-2.31,10.58s1.59,7.25,2.17,12.47,2,12.18,6.22,17.39a28.34,28.34,0,0,0,10.7,7.68s-7.66,1.3-8.38,7.54-12.29,7.25-16.77,9.28-11.42-1.88-14.6-.58l-3.18,1.3s9-5.36,10.26-31.6S292,59.28,307,38c12-17.1,30.65-12.76,30.65-12.76s15.08-6,27.23,16.91,13.3,29.57,19.47,47.54,7.52,23.77,11.76,29.57,9.83,9.06,16.38,12c10.41,4.64,10.22,13.91,10.22,13.91s-2.31-11-14.07-12.95-31.61-8.89-39.9-27.44S363.89,61.44,356,47.53,339.51,43.66,337.34,30.72Z"/><path class="cls-6" d="M342.78,114.4s-3.47-1.64-6-2.71l-2.51-1.06s-1.35,1.26-4.34,1.06-4-.39-4.24-.39a93.84,93.84,0,0,1-9.54-6.28c-3.47-2.61-11.28-8.5-12.62-11.21s-2.12-4.73-.1-4.16,6.07,3.58,6.07,3.58l-.77-2.61s-4-2.61-6.55-3.09-2.31-1.26-3.76,0-3.76.39-3.76,3.48-.39,8.5.48,11.4-.39,6.67.1,8.5,1.35,1.55.19,4.16-.67,3.77-.48,4.35a32.18,32.18,0,0,1-.29,5.22l-.1.68s.87.39,2.79,1.45a16.87,16.87,0,0,1,7.42,6.57,10.82,10.82,0,0,0,6.36,4.93,42.36,42.36,0,0,0,.1,4.73c.19,3.58.1,5.7,1,7.25a15.11,15.11,0,0,0,4.14,5,19.08,19.08,0,0,1,3.18,3l25.54-2.9s2.79-4.73,5.11-5.8a10.8,10.8,0,0,0,4.91-5.6c.48-1.64.77-2.42.77-2.42a30.59,30.59,0,0,1,8.58-2.13c4-.19,4.91.1,7.32.1s4.34.68,7.52-5.51l3.18-6.18a9.83,9.83,0,0,0,5.2-1.64c2.7-1.74,3-2,1-3.48s-8.67-6.57-9.93-7.73-3.85-5.7-6.94-8.6-4-8.89-6.07-10.34-5.59-2.8-6.26-1.74-2.6,8.41-5.3,11.69S342.78,114.4,342.78,114.4Z"/><path class="cls-9" d="M309.53,93.24s-5.59-4.64-6.84-3.58.19,4.54,4.24,8.12a66.22,66.22,0,0,0,7,5.51A44.56,44.56,0,0,1,309.53,93.24Z"/><path class="cls-9" d="M301.15,88.21s-3,1.74-2.22,4.54,5.59,10.73,8.87,11.31,4.24.68,4.24.68l-4,.77s6,7,8.48,7.83,4.63,1.06,12.43,3.09,11.28,5.12,11.28,5.12-2.31.87-4.34,1.84l-2,1s1.73-2.71-4-5-10.89-4.06-12.43-4.45-8.1-5.12-14.36-13.72-7.9-10.73-7-11.31S300.28,87.44,301.15,88.21Z"/><path class="cls-9" d="M327.27,129.47s-2.31-.68-6.07-1.35-6.84-4.93-11.28-7-7.71-3.87-9.83-5.8L298,113.43s6.17,6.09,11.37,8.6,6.17,4.64,9.54,6,6.65,2.32,6.65,2.32Z"/><path class="cls-9" d="M322.26,135.27a22.17,22.17,0,0,0-6.65-5.6c-4.53-2.61-7.23-2.22-7.23-2.22s3.47,1.84,6.26,3.58a34.79,34.79,0,0,1,6.07,5.51Z"/><path class="cls-9" d="M319.85,138.17s4.63-8.6,10.5-11.6,9.73-6.09,13.88-6.09h15.13s-11.18-.68-17.54,1.16-12.72,5.89-15.52,9.08S319.85,138.17,319.85,138.17Z"/><path class="cls-9" d="M355.89,141.55s-7.71,1.79-10.31,1.06-9.54-7.1-13.44-8l-3.9-.87,5.2,2.32s-5.78.58-8,.58h-2.17s11,0,13.15,1.59,8.1,5.36,8.1,5.36a82.51,82.51,0,0,0-16.62.14l-9,1s2.31-.29,13.88.29,17.49.14,16.62,1.3-1.88,5.22-4.34,4.35l-2.46-.87s-5.64,1.88-7.08,1.45-1-2.46.87-2.61,1.88.87,1.88.87-2.17-3-5.2,0,1,5.07,4.48,3.91,4.63-2.32,4.63-2.32l3.47,1.16s-1,3.77-9.4,3.19a148.39,148.39,0,0,1-14.74-1.74s.43,2.17-.72,2.17a38.28,38.28,0,0,1-4.48-.68l3.18,3,25.54-2.9s2.79-4.2,5.11-5.8S355.5,146.72,355.89,141.55Z"/><path class="cls-9" d="M379.31,134s.39-5.31-3.23-6-5.49-1.45-5.49-3.19a5.43,5.43,0,0,1,1.3-3.19,2.46,2.46,0,0,0,2.46,3c3,.14,8.14,3.19,8.14,3.19Z"/><path class="cls-9" d="M325.92,133.63s2.6-.87,4.63-1.59,5.06-2.75,8.67-2.9,4.19-1.74,4.34-2.61-2-1.59-5.78-.43-6.51,2.17-8.53,3.91A21.48,21.48,0,0,0,325.92,133.63Z"/><path class="cls-9" d="M385.19,120.15s-9.11-2.75-10.41-2.75-14.17,2.32-21.25,2-9.3,1.06-9.3,1.06,5.69-1.64,7.28-3.53,12.72-10.44,12.72-10.44-10,9.42-11.42,10.58l-1.45,1.16s6.65,0,11.13-3.91,6.22-10.29,4.34-13.34S359,95.94,359,95.94l.48-1.64s6.51-.82,8.38,5.56,2.75,5.51,4.77,7.39,3.13,5,6.12,7.73A80.8,80.8,0,0,0,385.19,120.15Z"/><path class="cls-24" d="M308.64,88.51a58.18,58.18,0,0,0-.94-6.7c-.8-4.2-1.45-7.46-1.45-7.46a10.67,10.67,0,0,0-.14,3.26,27.47,27.47,0,0,1,.51,3.91s-.65-1.16-1.08-.43S305,86,308.64,88.51Z"/><path class="cls-25" d="M329.1,76.13a24.09,24.09,0,0,0-1.64-8.5c-1.64-3.58-6.36-5-9.64-5.22l-3.28-.19s6.57,1.26,8.7,3.61,2.28,3.41,2.28,3.41a8.68,8.68,0,0,0-7-3,7.89,7.89,0,0,0-6.18,4s2.86-4.17,6.87-3.77,6.69,3.23,6.79,3.8-.4,1.45-.94,1.49-1.88-.4-2.17-.36-2.64,1.78-5.2,1.52a23.28,23.28,0,0,1-4.37-.83s1.37.76,2.71,1.34a6.08,6.08,0,0,0,2.39.54s0,.29-1.66.54a6,6,0,0,0-2.82,1.34,15.5,15.5,0,0,1,5.71-1.7c3.14-.25,3.58-1.74,4.84-1.85s2.57-.76,2.17-2A8.11,8.11,0,0,0,325.41,68S328.66,69.88,329.1,76.13Z"/><path class="cls-25" d="M333.8,74.92s1.52-6.6,2.42-8.91,4.91-3.66,8-4.38a19.19,19.19,0,0,1,5.17-.58,14.78,14.78,0,0,0-7,2.54,13,13,0,0,0-3.9,4.46,18,18,0,0,1,2.86-1.59c1.34-.54,4.16-1.74,6.69-.65s3.18,2.65,4,3l.83.4a2.59,2.59,0,0,1-1.7-.83c-.94-.87-4.19-3.91-8.49-2.17s-5.71,3.8-5,4.2,1.48.62,3.72,1.49a12.11,12.11,0,0,0,6.79.69,9.62,9.62,0,0,0,3.07-1.23,9.76,9.76,0,0,1-1.92,1.38l-.76.33s.94,0,1.84,0h.9s-1.77.43-2.89.65a9.09,9.09,0,0,1-6.25-.51c-3.43-1.34-5.71-2.57-5.28-4.13S336.54,68.44,333.8,74.92Z"/><path class="cls-25" d="M337.3,81.81a9,9,0,0,1,1,2.46c.33,1.41.14,1.56-.29,2.25s-.65.69-.65.69,1.63-.54,1.52-2A9.27,9.27,0,0,0,337.3,81.81Z"/><path class="cls-25" d="M331.92,89.06s.9-1.34,1.84-2.5,2.82-.83,2.86-.47-.43.8-1.41.8S333.25,87.24,331.92,89.06Z"/><path class="cls-25" d="M326.71,86c0-.36,1.12-.69,1.45.29a4.41,4.41,0,0,0,1.59,2.21,8.91,8.91,0,0,0,1.12.4s-1.77,0-2.42-1.05S326.68,86.7,326.71,86Z"/><path class="cls-25" d="M342.36,87.53a13.29,13.29,0,0,0,2.78,2.57c1.77,1.23,2,4,1.19,5.94l-.76,2A11.59,11.59,0,0,0,347,92.5C346.81,90,344.31,89.71,342.36,87.53Z"/><path class="cls-25" d="M322.81,87.14a25.86,25.86,0,0,0-2.75,2.39c-1,1.09-1.73,1.12-1.19,3a9.68,9.68,0,0,0,1.63,3.19s-2.13-2.36-2.24-4.46S321.36,88.8,322.81,87.14Z"/><path class="cls-25" d="M338.49,70.12c-.1-.32,1.93-.85,3.32-1.67s4-1.79,6.07-.72S350,70,351.17,70.12l1.2.17a4,4,0,0,1-1.93-1.11c-.58-.77-3.25-3.09-5.74-2.37A28.64,28.64,0,0,0,338.49,70.12Z"/><path class="cls-25" d="M338.49,70.12s.82-.36,3.18.17a11.77,11.77,0,0,0,5.4.39c1.93-.34,4.1-.55,4.1-.55l1.2.17a15.15,15.15,0,0,0-4.29.58c-2.7.72-4.91,0-7.18-.39Z"/><path class="cls-25" d="M314.11,70.33a10.2,10.2,0,0,0,5.54.68c2.75-.58,3.47-.63,4.29-.53s.43-.14,0-.72-1.78-2.22-5.3-1.74-4.82,2.22-5.64,2.61l-.82.39s1.59-1.16,2.75-2.13,4-2.13,6.22-1.3,3.71,1.88,3.71,2.42.1.92-.77.92a13.92,13.92,0,0,0-3.71.34A8.31,8.31,0,0,1,314.11,70.33Z"/><path class="cls-8" d="M337,62.1c-.37.32-.29,2.61.22,2.61s7.08-2,11.2-3,7.08,2.17,7.3,2-3-3.91-7.16-4S338.49,60.79,337,62.1Z"/><path class="cls-8" d="M326,64.78c.74-.1.14-3-.36-3s-9-2.17-11.28-1.81-4.63,3-4.41,3.12,4-1.81,6.94-.65S323.82,65.07,326,64.78Z"/><path class="cls-15" d="M322,68.25a1.87,1.87,0,0,1,.33,1,1.92,1.92,0,0,1-.5,1.27,3.25,3.25,0,0,1,.52,0c.75,0,1.47,0,1.76,0s.36-.12.1-.46A4.49,4.49,0,0,0,322,68.25Z"/><path class="cls-15" d="M317.3,69.29a1.88,1.88,0,0,1,.36-1.08,7.24,7.24,0,0,0-3.78,1.86,8.37,8.37,0,0,0,4.63,1.09h.09A2.1,2.1,0,0,1,317.3,69.29Z"/><path class="cls-15" d="M343.71,69.05a2.06,2.06,0,0,1,1.08-1.75,6.71,6.71,0,0,0-1.16.28c-2.79.94-2.89,1.67-4.22,2-.14,0-.19.39.26.39a23.68,23.68,0,0,1,3.3.65,8.84,8.84,0,0,0,1.82.2A2.06,2.06,0,0,1,343.71,69.05Z"/><path class="cls-15" d="M351.17,70.12h-.1A.15.15,0,0,0,351.17,70.12Z"/><path class="cls-15" d="M349.63,69.05a7.72,7.72,0,0,0-1.1-.91,1.85,1.85,0,0,1,.25.91,2,2,0,0,1-.71,1.48c1.08-.17,2.62-.36,3-.4C350.91,70.11,350.53,69.94,349.63,69.05Z"/><path class="cls-8" d="M322,68.25a5.44,5.44,0,0,0-2.33-.31,15.09,15.09,0,0,0-2,.27,1.88,1.88,0,0,0-.36,1.08,2.1,2.1,0,0,0,1.29,1.85c1.74-.22,2.62-.48,3.27-.59a1.92,1.92,0,0,0,.5-1.27A1.87,1.87,0,0,0,322,68.25Z"/><path class="cls-8" d="M348.52,68.14a5.1,5.1,0,0,0-3.73-.84,2,2,0,0,0,0,3.5,14,14,0,0,0,2.73-.18l.53-.09a2,2,0,0,0,.71-1.48A1.85,1.85,0,0,0,348.52,68.14Z"/><path class="cls-26" d="M321.39,93.14a12.06,12.06,0,0,0,4.38-.34c3-.63,4.53.72,5.11.77s2.07-.92,3.13-.92,3.81.63,6.79.63,3.37,0,3.37.29-.72.48-2.84,3.14-4.91,3.91-9.78,3.33-6.07-2.37-8.1-4.49S321.53,93.67,321.39,93.14Z"/><path class="cls-27" d="M321.73,93.28a6,6,0,0,0,4.48,1.55c2.79-.19,3.4,1,6.32.75s3-.43,4.77-.43a12,12,0,0,0,4.16-.72c1.41-.43,2.28-.72,2.13-.51s-.29.22-1.59.72a14,14,0,0,1-5.28.76c-2-.07-3.4.65-5.57.43s-2.78-.76-4.23-.72S323.24,95.16,321.73,93.28Z"/><path class="cls-8" d="M339.41,69.56a13.48,13.48,0,0,0,2.6-1.88c.87-.92,1.49-1.64,1.49-1.64l-1.25,1.69a6,6,0,0,0,1.66-1A10,10,0,0,0,345,65.67a3,3,0,0,1-.89,1.09l-.65.51a13.23,13.23,0,0,0,1.93-.75,3.74,3.74,0,0,0,1.16-1l-1,1.16a4.88,4.88,0,0,0,.8,0c.55,0,1.37-.94,1.37-.94a10.45,10.45,0,0,1-.82.89l-.22.17a1.49,1.49,0,0,0,1.47,0l1-.36s-.7.46-1,.6l-.29.14a3.26,3.26,0,0,0,1.13.27,3.58,3.58,0,0,0,1.57-.19,4.16,4.16,0,0,1-1.16.41l-.53.07a4.46,4.46,0,0,0,2.25.63l1.24,0a7.51,7.51,0,0,1-1.78.19l-.92,0a4.51,4.51,0,0,0,1,.65,10.91,10.91,0,0,0,2.14,0,8.45,8.45,0,0,1-1.54.3h-.6a9.61,9.61,0,0,0,2.14.46l1.13.1-1.78.22a2.81,2.81,0,0,1-1.81-.65,6.2,6.2,0,0,0-4.77-2.42C343.7,67.15,341.41,69.22,339.41,69.56Z"/><path class="cls-8" d="M325.29,70a13.48,13.48,0,0,1-2.6-1.88c-.87-.92-1.49-1.64-1.49-1.64l1.25,1.69a6,6,0,0,1-1.66-1,10,10,0,0,1-1.13-1.09,3,3,0,0,0,.89,1.09l.65.51a13.23,13.23,0,0,1-1.93-.75,3.74,3.74,0,0,1-1.16-1l1,1.16a4.88,4.88,0,0,1-.8,0c-.55,0-1.37-.94-1.37-.94a10.45,10.45,0,0,0,.82.89l.22.17a1.49,1.49,0,0,1-1.47,0l-1-.36s.7.46,1,.6l.29.14a3.26,3.26,0,0,1-1.13.27,3.58,3.58,0,0,1-1.57-.19,4.16,4.16,0,0,0,1.16.41l.53.07a4.46,4.46,0,0,1-2.25.63l-1.24,0a7.51,7.51,0,0,0,1.78.19l.92,0a4.51,4.51,0,0,1-1,.65,10.91,10.91,0,0,1-2.14,0,8.45,8.45,0,0,0,1.54.3h.6a9.61,9.61,0,0,1-2.14.46l-1.13.1,1.78.22a2.81,2.81,0,0,0,1.81-.65,7.85,7.85,0,0,1,5.32-2.22C321.56,67.77,323.29,69.66,325.29,70Z"/><path class="cls-9" d="M338.63,241.79s2.87,2.15,11.83,10.76,17.57,16,17.57,16-9.32,2.87-14.7,4.48-15.6,4.12-20.44,4.66-6.1,3.23-7,3-2.87-4.12-6.1-12.91-7-21.69-6.63-23.31-.36-1.79,4.84-1.79,10.76-3.59,12.91-3S333.07,242,335,242,338.63,241.79,338.63,241.79Z"/><path class="cls-28" d="M322.5,275.22a67.33,67.33,0,0,1-10.67,7c-5.65,2.87-10.58,5-14.43,7.62s-8.16,5.11-9.59,5.2-3.59.18-3.94-.9a6.31,6.31,0,0,1-.18-2.42s-.54-1.17,1.88-2.15,4-1.52,4.57-2.51,3.94-3.23,4.75-4.12.45-1.34-.81-1.25-6.54,3.59-7.71,4.3-2.06,1.34-2.87,1.17-3.5-1.61-3.59-3.59-.45-2.33.63-3l1.08-.72s-4.84-.18-5.2-3.5a6.24,6.24,0,0,1,2.15-5.29s-2.69-1.79-2.24-4.66,1.79-3.59,3-4,5.47-2.69,8.61-4.39l3.14-1.7a23.44,23.44,0,0,0-4.48.36c-2.78.45-7.44.27-9.41-1.17a4.08,4.08,0,0,1-1.52-4.3c.18-.63,2.69-.63,5.92-1.61s6.27-1.25,10.76-1.79,6.63-1.52,11-1.08,10.13.63,10.13.63,2.24,9.23,4.93,16.85S322.5,275.22,322.5,275.22Z"/><polygon class="cls-8" points="278.93 184.42 295.61 189.08 313.76 189.21 344.91 182.63 378.25 170.07 374.49 146.41 278.22 157.53 278.93 184.42"/><path class="cls-9" d="M341.72,181.28s-.4-.94-2.69-.67-4.57,2-7.4,2.15-5.38,1.88-8.34,2-6.32.54-9.55,4.44-3.5,4.44-11.56,17.08S285.92,227,280.55,232.64s-6.32,8.2-5.11,8.34,5-.13,17.88-5.24,16.4-3.63,19-4.3,11.43-7.26,21-9.82,15.33-1.08,16.54-2.42-.4-6.05-2.42-7.26-5.38-7-6.32-13-1.75-13.18-1.61-15.33A2.44,2.44,0,0,1,341.72,181.28Z"/><path class="cls-9" d="M349.43,214.72s1.75-3.63,1.48-6.5l-.27-2.87-2.11-.49a8.74,8.74,0,0,1,.49,3.41,17.66,17.66,0,0,1-1.08,4.17A4.53,4.53,0,0,1,349.43,214.72Z"/><path class="cls-29" d="M341.72,181.28a13.46,13.46,0,0,0,2.64-3c.72-1.34,2.51-2,6.72-6.45s3.5-3.23,9.32-7.26a64.1,64.1,0,0,0,10.67-8.87c2.69-2.69,2.87-3.59,4.3-3s2.42,2.42,1.52,5.56-2.78,5.2-5.47,7.62a75,75,0,0,0-5.29,5.38l3.5.54a16.16,16.16,0,0,0,4.57-.9c2.06-.81,6.19-2.42,7.53-2.24s5.11,3.5,5.2,5.29-1.61,3.68-1.61,3.68,3.68,1.34,3.41,4.21a5.71,5.71,0,0,1-3,4.21s4.21,1.43,3.41,4.75a6.33,6.33,0,0,1-4,4.3,4.72,4.72,0,0,1-.63,4.3c-1.52,2.06-2.06,2.15-7.26,3.32s-7.44,3.41-15.78,3.41-10.85-.76-10.85-.76l-2.11-.49-5.42.9s-1.79-1.79-2.69-9.86-1.34-9.68-1-12.33S341.72,181.28,341.72,181.28Z"/><path class="cls-20" d="M353.33,273,368,268.5s16.69,14.37,16.69,17.69-1.58,5.53-11.23.32A168.1,168.1,0,0,1,353.33,273Z"/><path class="cls-20" d="M367.85,286.07s14,9.76,18.61,5.81a144.94,144.94,0,0,0,17.39-18.66l4.9-6.48,1.11,3.64S389.31,294.09,385,294.09,367.85,286.07,367.85,286.07Z"/><path class="cls-20" d="M410.58,275s-3.32,3.56-3.32,5.46v5s4.74-.95,4.74-3.79A23.48,23.48,0,0,0,410.58,275Z"/><path class="cls-20" d="M332.55,360.34s-.71-48.15.95-56.45,3.32-14.47,3.32-14.47l-3.32.71A85.61,85.61,0,0,0,330.89,307c-.47,9.25-.95,53.37-.95,53.37Z"/><polygon class="cls-20" points="285.35 156.37 292.94 134.31 287.96 156.13 285.35 156.37"/><path class="cls-20" d="M278.93,184.42s-8.76-4.8-12.8-4.8-11.62,4-11.62,4a10.63,10.63,0,0,1,4.27-4.27,12.29,12.29,0,0,1,5-1.42s-5.69-2.85-9.72-2.13l-4,.71s8.06-3.08,13.76-1.42,14.71,5,14.71,5Z"/><path class="cls-30" d="M385.33,177.6s-2,.67-3.73,1.06a20.19,20.19,0,0,0-2.77.83l.2.36s3.91-1.15,4.66-1.38,1.58-.43,1.58-.43Z"/><path class="cls-30" d="M385.78,186a14.77,14.77,0,0,1-3.35.86,4.73,4.73,0,0,0-2.69,1.34,6.17,6.17,0,0,1,2.85-1A7.41,7.41,0,0,0,385.78,186Z"/><path class="cls-30" d="M385.15,195.08s-3.08.18-4.93.18a11.48,11.48,0,0,0-4.39,1.42,15.21,15.21,0,0,1,4.55-1.15c2.21-.12,4.74-.08,4.74-.08Z"/><path class="cls-30" d="M278.57,271s1.44-.44,4-1.33a9.09,9.09,0,0,0,3.5-1.84s-.47,1.36-3.5,2.37S278.57,271,278.57,271Z"/><path class="cls-30" d="M281.62,279.79a15.85,15.85,0,0,1,4.08-2.46,13.48,13.48,0,0,1,3.79-1.3,17.9,17.9,0,0,0-4.8,1.3,19.8,19.8,0,0,0-3.5,2.31Z"/></g><path class="cls-23" d="M305.64,48s1.3,8.33,18.1,8.74,24.53-8.35,32.81-.52,1.75,24.44,1.75,24.44S365.53,64.85,362,52C358.13,37.91,322.28,19.62,305.64,48Z"/></g></g></svg>