<?xml version="1.0" encoding="UTF-8"?>
<svg width="63px" height="55px" viewBox="0 0 63 55" version="1.1" xmlns="http://www.w3.org/2000/svg" xmlns:xlink="http://www.w3.org/1999/xlink">
    <!-- Generator: Sketch 47.1 (45422) - http://www.bohemiancoding.com/sketch -->
    <title>referencement-icn</title>
    <desc>Created with Sketch.</desc>
    <defs>
        <polygon id="path-1" points="62.52475 0.680833333 0 0.680833333 0 54.1663333 62.52475 54.1663333 62.52475 0.680833333"></polygon>
    </defs>
    <g id="Page-1" stroke="none" stroke-width="1" fill="none" fill-rule="evenodd">
        <g id="Desktop-HD" transform="translate(-166.000000, -1235.000000)">
            <g id="referencement-icn" transform="translate(166.000000, 1235.000000)">
                <g id="Page-1">
                    <path d="M28.0889167,43.7184167 C20.1614167,43.7184167 13.71225,37.26925 13.71225,29.3409167 C13.71225,25.36425 15.3930833,21.5525833 18.2764167,18.8484167 L18.2764167,39.1534167 L38.5814167,39.1534167 C35.87725,42.0375833 32.0655833,43.7184167 28.0889167,43.7184167" id="Fill-1" fill="#F2790F"></path>
                    <path d="M19.1094167,17.0745 C15.33525,19.8445 12.8785833,24.3111667 12.8785833,29.3411667 C12.8785833,37.7278333 19.7019167,44.552 28.0885833,44.552 C33.1194167,44.552 37.58525,42.0945 40.35525,38.3203333 L19.1094167,38.3203333 L19.1094167,17.0745 Z M36.44025,39.987 C34.0769167,41.8386667 31.1344167,42.8853333 28.0885833,42.8853333 C24.9344167,42.8853333 22.0294167,41.8011667 19.72525,39.987 L36.44025,39.987 L36.44025,39.987 Z M17.44275,20.9903333 L17.44275,37.7053333 C15.6285833,35.4003333 14.54525,32.4953333 14.54525,29.3411667 C14.54525,26.2953333 15.5919167,23.3536667 17.44275,20.9903333 L17.44275,20.9903333 Z" id="Fill-3" fill="#033159"></path>
                    <path d="M46.0918333,34.7389167 C46.401,33.7014167 46.6201667,32.63475 46.746,31.5489167 L55.8601667,31.5489167 L55.8601667,27.1339167 L46.746,27.1339167 C46.6851667,26.60475 46.6018333,26.0805833 46.4968333,25.56475 L55.8601667,25.56475 L55.8601667,21.14975 L45.0001667,21.14975 C44.7393333,20.61225 44.4535,20.08725 44.1435,19.5780833 L55.8601667,19.5780833 L55.8601667,15.1630833 L40.4185,15.1630833 C39.7601667,14.5889167 39.066,14.0639167 38.3393333,13.5905833 L55.8601667,13.5905833 L55.8601667,9.17558333 L27.2551667,9.17558333 L27.2551667,10.56725 C25.7018333,10.6355833 24.1726667,10.8939167 22.691,11.33725 L22.691,5.98558333 L60.4843333,5.98558333 L60.4843333,34.7389167 L46.0918333,34.7389167 Z" id="Fill-5" fill="#F2790F"></path>
                    <path d="M61.31725,5.15233333 L21.8580833,5.15233333 L21.8580833,12.4948333 C23.7989167,11.7765 25.8980833,11.3831667 28.0889167,11.3831667 L28.0889167,10.009 L55.0264167,10.009 L55.0264167,12.7573333 L34.98475,12.7573333 C36.8764167,13.544 38.6039167,14.6456667 40.1030833,15.9965 L55.0264167,15.9965 L55.0264167,18.7448333 L42.58475,18.7448333 C43.31975,19.7498333 43.9530833,20.834 44.4689167,21.9831667 L55.0264167,21.9831667 L55.0264167,24.7315 L45.44725,24.7315 C45.7239167,25.7756667 45.9055833,26.8573333 45.9889167,27.9673333 L55.0264167,27.9673333 L55.0264167,30.7156667 L45.9889167,30.7156667 C45.8605833,32.4106667 45.5014167,34.0406667 44.9355833,35.5723333 L61.31725,35.5723333 L61.31725,5.15233333 Z M59.6505833,6.819 L59.6505833,33.9056667 L47.1764167,33.9056667 C47.2955833,33.4031667 47.3955833,32.8948333 47.47475,32.3823333 L55.0264167,32.3823333 L56.6930833,32.3823333 L56.6930833,30.7156667 L56.6930833,27.9673333 L56.6930833,26.3006667 L56.6930833,24.7315 L56.6930833,21.9831667 L56.6930833,20.3165 L56.6930833,18.7448333 L56.6930833,15.9965 L56.6930833,14.3298333 L56.6930833,12.7573333 L56.6930833,10.009 L56.6930833,8.34233333 L55.0264167,8.34233333 L28.0889167,8.34233333 L26.42225,8.34233333 L26.42225,9.7865 C25.4439167,9.86816667 24.4755833,10.024 23.52475,10.2506667 L23.52475,6.819 L59.6505833,6.819 L59.6505833,6.819 Z" id="Fill-7" fill="#033159"></path>
                    <g id="Group-11" transform="translate(0.000000, 0.152583)">
                        <mask id="mask-2" fill="white">
                            <use xlink:href="#path-1"></use>
                        </mask>
                        <g id="Clip-10"></g>
                        <path d="M-0.00025,52.2238333 L1.94308333,54.1663333 L10.57975,45.5296667 L8.63725,43.5863333 L-0.00025,52.2238333 Z M59.7764167,33.8488333 L43.39475,33.8488333 C43.9614167,32.318 44.3214167,30.6871667 44.44975,28.9921667 L53.4864167,28.9921667 L53.4864167,26.2438333 L44.44975,26.2438333 C44.36475,25.1346667 44.1839167,24.0521667 43.9064167,23.008 L53.4864167,23.008 L53.4864167,20.2605 L42.92975,20.2605 C42.4130833,19.1121667 41.7805833,18.0263333 41.04475,17.0213333 L53.4864167,17.0213333 L53.4864167,14.273 L38.5630833,14.273 C37.06475,12.923 35.3364167,11.8221667 33.44475,11.0338333 L53.4864167,11.0338333 L53.4864167,8.2855 L26.5480833,8.2855 L26.5480833,9.65966667 C24.3580833,9.65966667 22.2589167,10.0538333 20.31725,10.7721667 L20.31725,3.42883333 L59.7764167,3.42883333 L59.7764167,33.8488333 Z M41.6939167,28.9921667 C41.53975,30.7096667 41.09725,32.3438333 40.4180833,33.8488333 L20.31725,33.8488333 L20.31725,13.748 C22.2205833,12.8905 24.3289167,12.408 26.5480833,12.408 C29.1880833,12.408 31.6730833,13.0846667 33.8380833,14.273 L26.5480833,14.273 L26.5480833,17.0213333 L37.44475,17.0213333 C38.3839167,17.9863333 39.1964167,19.0746667 39.85475,20.2605 L26.5480833,20.2605 L26.5480833,23.008 L41.04225,23.008 C41.37225,24.0438333 41.5930833,25.1263333 41.6939167,26.2438333 L26.5480833,26.2438333 L26.5480833,28.9921667 L41.6939167,28.9921667 Z M26.5480833,42.8288333 C18.1614167,42.8288333 11.3380833,36.0046667 11.3380833,27.6188333 C11.3380833,22.588 13.79475,18.1221667 17.5689167,15.3513333 L17.5689167,36.5971667 L38.81475,36.5971667 C36.04475,40.3713333 31.57975,42.8288333 26.5480833,42.8288333 L26.5480833,42.8288333 Z M17.5689167,0.6805 L17.5689167,12.068 C12.2030833,15.1738333 8.59058333,20.9721667 8.59058333,27.6188333 C8.59058333,32.5621667 10.5889167,37.038 13.8205833,40.2863333 L12.9155833,39.3763333 L9.77808333,42.4988333 L11.71725,44.4463333 L14.8539167,41.3246667 L13.87475,40.3405 C17.1230833,43.5763333 21.60225,45.5763333 26.5480833,45.5763333 C33.19475,45.5763333 38.9930833,41.963 42.0989167,36.5971667 L62.52475,36.5971667 L62.52475,0.6805 L17.5689167,0.6805 Z" id="Fill-9" fill="#FFFFFF" mask="url(#mask-2)"></path>
                    </g>
                </g>
            </g>
        </g>
    </g>
</svg>