<?xml version="1.0" encoding="UTF-8"?>
<svg width="63px" height="55px" viewBox="0 0 63 55" version="1.1" xmlns="http://www.w3.org/2000/svg" xmlns:xlink="http://www.w3.org/1999/xlink">
    <!-- Generator: Sketch 47.1 (45422) - http://www.bohemiancoding.com/sketch -->
    <title>visibilite-icn</title>
    <desc>Created with Sketch.</desc>
    <defs></defs>
    <g id="Page-1" stroke="none" stroke-width="1" fill="none" fill-rule="evenodd">
        <g id="Desktop-HD" transform="translate(-167.000000, -1350.000000)">
            <g id="visibilite-icn" transform="translate(167.000000, 1350.000000)">
                <g id="Page-1">
                    <polygon id="Fill-1" fill="#F2790F" points="5.85885385 43.7146769 8.60039231 41.1779077 13.2305462 48.1138308 9.57516154 49.7646769"></polygon>
                    <path d="M8.75422308,39.8830385 L4.77391538,43.5655 L9.2433,50.8432692 L14.4869154,48.4740385 L8.75422308,39.8830385 Z M8.44706923,42.4731154 L11.9721462,47.7539615 L9.90583846,48.6872692 L6.94260769,43.8633462 L8.44706923,42.4731154 Z" id="Fill-2" fill="#033159"></path>
                    <polygon id="Fill-3" fill="#F2790F" points="12.1776769 37.8642846 10.4024462 35.2056692 33.0286 12.3781308 48.9261385 36.1398231 19.4216 48.5884385"></polygon>
                    <path d="M33.1555231,11.0468769 L9.29990769,35.1157231 L9.64513846,35.6268 L9.65783077,35.6141077 L11.4762154,38.3378769 L19.1093692,49.6382615 L50.1996,36.5203385 L33.1555231,11.0468769 Z M32.8991385,13.7088769 L47.6526769,35.7579538 L19.7338308,47.5389538 L12.8842154,37.3986462 L11.4906,35.3103385 L32.8991385,13.7088769 Z" id="Fill-4" fill="#033159"></path>
                    <path d="M34.2113538,-0.000338461538 L26.9589692,4.49866154 L29.5778154,8.41381538 L3.71173846,34.5125846 L5.73235385,37.5045846 L-0.000338461538,42.8074308 L6.95673846,54.1332 L14.6237385,50.6682 L16.0875846,52.8360462 L24.4535077,49.3058923 L27.3414308,54.7534308 L44.4599692,47.2048923 L41.9460462,41.9248923 L49.7865077,38.6172769 L51.6751231,41.4392 L58.9275077,36.9402 L34.2113538,-0.000338461538 Z M30.8851231,5.3482 L33.3922769,3.79296923 L55.0022,36.0923538 L52.4950462,37.6475846 L30.8851231,5.3482 Z M7.3062,34.8502 L31.1618154,10.7805077 L48.2058923,36.2556615 L17.1165077,49.3735846 L7.3062,34.8502 Z M3.57804615,43.2990462 L7.31296923,39.8442 L13.0397385,48.3226615 L8.04827692,50.5776615 L3.57804615,43.2990462 Z M27.0342769,48.2168923 L39.3728923,43.0105077 L40.7055846,45.8104308 L28.5912,51.1522 L27.0342769,48.2168923 Z M41.6718923,6.5802 L43.7390462,8.45358462 L48.2372,3.49173846 L46.1700462,1.61835385 L41.6718923,6.5802 Z M49.9633538,14.3555077 L51.4153538,16.7374308 L62.3112769,10.0942769 L60.8592769,7.71150769 L49.9633538,14.3555077 Z M54.4065077,24.3536615 L55.0047385,27.0799692 L61.5463538,25.6474308 L60.9498154,22.9211231 L54.4065077,24.3536615 Z" id="Fill-5" fill="#FFFFFF"></path>
                </g>
            </g>
        </g>
    </g>
</svg>